%TF.GenerationSoftware,Altium Limited,Altium Designer,21.3.2 (30)*%
G04 Layer_Color=128*
%FSLAX44Y44*%
%MOMM*%
%TF.SameCoordinates,675AFF39-0D07-4396-8A84-043E8CC343DD*%
%TF.FilePolarity,Positive*%
%TF.FileFunction,Drillmap*%
%TF.Part,Single*%
G01*
G75*
%TA.AperFunction,NonConductor*%
%ADD42C,0.1270*%
D42*
X59240Y10000D02*
X70760D01*
X65000Y4240D02*
Y15760D01*
X-70760Y10000D02*
X-59240D01*
X-65000Y4240D02*
Y15760D01*
X-68000Y-100000D02*
X-59000D01*
X-63500Y-104500D02*
Y-95500D01*
X-42600Y-100000D02*
X-33600D01*
X-38100Y-104500D02*
Y-95500D01*
X-17200Y-100000D02*
X-8200D01*
X-12700Y-104500D02*
Y-95500D01*
X8200Y-100000D02*
X17200D01*
X12700Y-104500D02*
Y-95500D01*
X33600Y-100000D02*
X42600D01*
X38100Y-104500D02*
Y-95500D01*
X59000Y-100000D02*
X68000D01*
X63500Y-104500D02*
Y-95500D01*
X33100Y9040D02*
X54100D01*
X43600Y-1460D02*
Y19540D01*
X-53300Y9040D02*
X-32300D01*
X-42800Y-1460D02*
Y19540D01*
X35400Y-44460D02*
X51400D01*
X43400Y-52460D02*
Y-36460D01*
X-51000Y-44460D02*
X-35000D01*
X-43000Y-52460D02*
Y-36460D01*
X56515Y-71120D02*
X60325D01*
X58420Y-73025D02*
Y-69215D01*
X46355Y-81280D02*
X50165D01*
X48260Y-83185D02*
Y-79375D01*
X36195Y-71120D02*
X40005D01*
X38100Y-73025D02*
Y-69215D01*
X26035Y-81280D02*
X29845D01*
X27940Y-83185D02*
Y-79375D01*
X15875Y-71120D02*
X19685D01*
X17780Y-73025D02*
Y-69215D01*
X5715Y-81280D02*
X9525D01*
X7620Y-83185D02*
Y-79375D01*
X-9525Y-81280D02*
X-5715D01*
X-7620Y-83185D02*
Y-79375D01*
X-19685Y-71120D02*
X-15875D01*
X-17780Y-73025D02*
Y-69215D01*
X-29845Y-81280D02*
X-26035D01*
X-27940Y-83185D02*
Y-79375D01*
X-40005Y-71120D02*
X-36195D01*
X-38100Y-73025D02*
Y-69215D01*
X-50165Y-81280D02*
X-46355D01*
X-48260Y-83185D02*
Y-79375D01*
X-60325Y-71120D02*
X-56515D01*
X-58420Y-73025D02*
Y-69215D01*
X74930Y-2540D02*
X77470D01*
X76200Y-3810D02*
Y-1270D01*
X-77470Y-2540D02*
X-74930D01*
X-76200Y-3810D02*
Y-1270D01*
X8255Y-10160D02*
X12065D01*
X10160Y-12065D02*
Y-8255D01*
X15875Y-2540D02*
X19685D01*
X17780Y-4445D02*
Y-635D01*
X-19685Y-2540D02*
X-15875D01*
X-17780Y-4445D02*
Y-635D01*
X-6985Y0D02*
X-3175D01*
X-5080Y-1905D02*
Y1905D01*
X3175Y0D02*
X6985D01*
X5080Y-1905D02*
Y1905D01*
X-12065Y-10160D02*
X-8255D01*
X-10160Y-12065D02*
Y-8255D01*
X43815Y-22860D02*
X47625D01*
X45720Y-24765D02*
Y-20955D01*
X-29845Y-20320D02*
X-26035D01*
X-27940Y-22225D02*
Y-18415D01*
X26035Y-20320D02*
X29845D01*
X27940Y-22225D02*
Y-18415D01*
X-47625Y-10160D02*
X-43815D01*
X-45720Y-12065D02*
Y-8255D01*
X43815Y-10160D02*
X47625D01*
X45720Y-12065D02*
Y-8255D01*
X28575Y-7620D02*
X32385D01*
X30480Y-9525D02*
Y-5715D01*
X-57785Y-30480D02*
X-53975D01*
X-55880Y-32385D02*
Y-28575D01*
X-47625Y-22860D02*
X-43815D01*
X-45720Y-24765D02*
Y-20955D01*
X53975Y-30480D02*
X57785D01*
X55880Y-32385D02*
Y-28575D01*
X-32385Y-7620D02*
X-28575D01*
X-30480Y-9525D02*
Y-5715D01*
X-60325Y-12700D02*
X-56515D01*
X-58420Y-14605D02*
Y-10795D01*
X56515Y-12700D02*
X60325D01*
X58420Y-14605D02*
Y-10795D01*
%TF.MD5,823cf78f25ffd781e38d6a8e58e78272*%
M02*
