%TF.GenerationSoftware,Altium Limited,Altium Designer,21.3.2 (30)*%
G04 Layer_Physical_Order=4*
G04 Layer_Color=16711680*
%FSLAX44Y44*%
%MOMM*%
%TF.SameCoordinates,675AFF39-0D07-4396-8A84-043E8CC343DD*%
%TF.FilePolarity,Positive*%
%TF.FileFunction,Copper,L4,Bot,Signal*%
%TF.Part,Single*%
G01*
G75*
%TA.AperFunction,Conductor*%
%ADD13C,0.2032*%
%TA.AperFunction,WasherPad*%
%ADD14C,1.1520*%
%TA.AperFunction,ComponentPad*%
%ADD15R,1.5000X1.5000*%
%ADD16C,1.5000*%
%ADD17O,1.1000X2.6000*%
%ADD18O,1.1000X2.1000*%
%TA.AperFunction,ViaPad*%
%ADD19C,0.7620*%
%ADD20C,0.5588*%
G36*
X50973Y-7407D02*
X50769Y-7630D01*
X50577Y-7881D01*
X50396Y-8159D01*
X50228Y-8465D01*
X50071Y-8798D01*
X49926Y-9158D01*
X49671Y-9961D01*
X49561Y-10404D01*
X49462Y-10874D01*
X46509Y-6432D01*
X46923Y-6506D01*
X47319Y-6545D01*
X47697Y-6552D01*
X48057Y-6525D01*
X48399Y-6465D01*
X48723Y-6373D01*
X49029Y-6246D01*
X49316Y-6087D01*
X49585Y-5895D01*
X49837Y-5669D01*
X50973Y-7407D01*
D02*
G37*
G36*
X-58458Y-16510D02*
X-58909Y-16517D01*
X-59336Y-16547D01*
X-59740Y-16601D01*
X-60121Y-16678D01*
X-60478Y-16779D01*
X-60812Y-16903D01*
X-61123Y-17050D01*
X-61410Y-17220D01*
X-61674Y-17414D01*
X-61915Y-17631D01*
X-63351Y-16195D01*
X-63134Y-15954D01*
X-62940Y-15690D01*
X-62770Y-15403D01*
X-62622Y-15092D01*
X-62499Y-14758D01*
X-62398Y-14401D01*
X-62321Y-14020D01*
X-62267Y-13616D01*
X-62237Y-13189D01*
X-62230Y-12738D01*
X-58458Y-16510D01*
D02*
G37*
G36*
X-24123Y-20809D02*
X-24093Y-21236D01*
X-24039Y-21640D01*
X-23962Y-22021D01*
X-23861Y-22378D01*
X-23737Y-22712D01*
X-23590Y-23023D01*
X-23420Y-23310D01*
X-23226Y-23574D01*
X-23009Y-23815D01*
X-24445Y-25251D01*
X-24686Y-25034D01*
X-24950Y-24840D01*
X-25237Y-24670D01*
X-25548Y-24523D01*
X-25882Y-24399D01*
X-26239Y-24298D01*
X-26620Y-24221D01*
X-27024Y-24167D01*
X-27451Y-24137D01*
X-27902Y-24130D01*
X-24130Y-20358D01*
X-24123Y-20809D01*
D02*
G37*
G36*
X44931Y-26588D02*
X44517Y-26514D01*
X44121Y-26475D01*
X43743Y-26468D01*
X43383Y-26495D01*
X43041Y-26555D01*
X42717Y-26647D01*
X42411Y-26774D01*
X42124Y-26933D01*
X41855Y-27125D01*
X41603Y-27351D01*
X40467Y-25613D01*
X40671Y-25390D01*
X40863Y-25139D01*
X41044Y-24861D01*
X41212Y-24555D01*
X41369Y-24222D01*
X41514Y-23862D01*
X41769Y-23059D01*
X41879Y-22616D01*
X41978Y-22146D01*
X44931Y-26588D01*
D02*
G37*
G36*
X62237Y-71609D02*
X62267Y-72036D01*
X62321Y-72440D01*
X62398Y-72821D01*
X62499Y-73178D01*
X62622Y-73512D01*
X62770Y-73823D01*
X62940Y-74110D01*
X63134Y-74374D01*
X63351Y-74615D01*
X61915Y-76051D01*
X61674Y-75834D01*
X61410Y-75640D01*
X61123Y-75470D01*
X60812Y-75322D01*
X60478Y-75199D01*
X60121Y-75098D01*
X59740Y-75021D01*
X59336Y-74967D01*
X58909Y-74937D01*
X58458Y-74930D01*
X62230Y-71158D01*
X62237Y-71609D01*
D02*
G37*
G36*
X-15427Y-74165D02*
X-15707Y-74488D01*
X-15955Y-74812D01*
X-16170Y-75136D01*
X-16351Y-75459D01*
X-16500Y-75783D01*
X-16615Y-76107D01*
X-16698Y-76431D01*
X-16747Y-76754D01*
X-16764Y-77078D01*
X-18796D01*
X-18813Y-76754D01*
X-18862Y-76431D01*
X-18945Y-76107D01*
X-19060Y-75783D01*
X-19209Y-75459D01*
X-19390Y-75136D01*
X-19605Y-74812D01*
X-19853Y-74488D01*
X-20133Y-74165D01*
X-20447Y-73841D01*
X-15113D01*
X-15427Y-74165D01*
D02*
G37*
G36*
X11437Y-81769D02*
X11467Y-82196D01*
X11521Y-82600D01*
X11598Y-82981D01*
X11699Y-83338D01*
X11823Y-83672D01*
X11970Y-83983D01*
X12140Y-84270D01*
X12334Y-84534D01*
X12551Y-84775D01*
X11115Y-86211D01*
X10874Y-85994D01*
X10610Y-85800D01*
X10323Y-85630D01*
X10012Y-85483D01*
X9678Y-85359D01*
X9321Y-85258D01*
X8940Y-85181D01*
X8536Y-85127D01*
X8109Y-85097D01*
X7658Y-85090D01*
X11430Y-81318D01*
X11437Y-81769D01*
D02*
G37*
G36*
X-7658Y-85090D02*
X-8109Y-85097D01*
X-8536Y-85127D01*
X-8940Y-85181D01*
X-9321Y-85258D01*
X-9678Y-85359D01*
X-10012Y-85483D01*
X-10323Y-85630D01*
X-10610Y-85800D01*
X-10874Y-85994D01*
X-11115Y-86211D01*
X-12551Y-84775D01*
X-12334Y-84534D01*
X-12140Y-84270D01*
X-11970Y-83983D01*
X-11823Y-83672D01*
X-11699Y-83338D01*
X-11598Y-82981D01*
X-11521Y-82600D01*
X-11467Y-82196D01*
X-11437Y-81769D01*
X-11430Y-81318D01*
X-7658Y-85090D01*
D02*
G37*
G36*
X30293Y-84325D02*
X30013Y-84648D01*
X29765Y-84972D01*
X29550Y-85296D01*
X29369Y-85619D01*
X29220Y-85943D01*
X29105Y-86267D01*
X29022Y-86590D01*
X28972Y-86914D01*
X28956Y-87238D01*
X26924D01*
X26907Y-86914D01*
X26858Y-86590D01*
X26775Y-86267D01*
X26660Y-85943D01*
X26511Y-85619D01*
X26330Y-85296D01*
X26115Y-84972D01*
X25867Y-84648D01*
X25587Y-84325D01*
X25273Y-84001D01*
X30607D01*
X30293Y-84325D01*
D02*
G37*
G36*
X-28486Y-92961D02*
X-28784Y-93316D01*
X-29065Y-93765D01*
X-29326Y-94307D01*
X-29569Y-94944D01*
X-29793Y-95674D01*
X-29999Y-96497D01*
X-30355Y-98427D01*
X-30636Y-100730D01*
X-37220Y-92552D01*
X-36136Y-92659D01*
X-34194Y-92723D01*
X-33336Y-92680D01*
X-32553Y-92587D01*
X-31845Y-92444D01*
X-31212Y-92250D01*
X-30655Y-92006D01*
X-30173Y-91712D01*
X-29766Y-91368D01*
X-28486Y-92961D01*
D02*
G37*
G36*
X64558Y-88571D02*
X64685Y-89108D01*
X64897Y-89679D01*
X65193Y-90285D01*
X65574Y-90925D01*
X66040Y-91600D01*
X66591Y-92309D01*
X67945Y-93831D01*
X68750Y-94644D01*
X58250D01*
X59054Y-93831D01*
X60409Y-92309D01*
X60960Y-91600D01*
X61425Y-90925D01*
X61807Y-90285D01*
X62103Y-89679D01*
X62315Y-89108D01*
X62442Y-88571D01*
X62484Y-88069D01*
X64516D01*
X64558Y-88571D01*
D02*
G37*
G36*
X13758D02*
X13885Y-89108D01*
X14097Y-89679D01*
X14393Y-90285D01*
X14775Y-90925D01*
X15240Y-91600D01*
X15791Y-92309D01*
X17146Y-93831D01*
X17950Y-94644D01*
X7450D01*
X8255Y-93831D01*
X9609Y-92309D01*
X10160Y-91600D01*
X10625Y-90925D01*
X11007Y-90285D01*
X11303Y-89679D01*
X11515Y-89108D01*
X11642Y-88571D01*
X11684Y-88069D01*
X13716D01*
X13758Y-88571D01*
D02*
G37*
G36*
X-11642D02*
X-11515Y-89108D01*
X-11303Y-89679D01*
X-11007Y-90285D01*
X-10625Y-90925D01*
X-10160Y-91600D01*
X-9609Y-92309D01*
X-8255Y-93831D01*
X-7450Y-94644D01*
X-17950D01*
X-17146Y-93831D01*
X-15791Y-92309D01*
X-15240Y-91600D01*
X-14775Y-90925D01*
X-14393Y-90285D01*
X-14097Y-89679D01*
X-13885Y-89108D01*
X-13758Y-88571D01*
X-13716Y-88069D01*
X-11684D01*
X-11642Y-88571D01*
D02*
G37*
G36*
X30767Y-91170D02*
X31236Y-91460D01*
X31790Y-91714D01*
X32428Y-91933D01*
X33150Y-92116D01*
X33956Y-92264D01*
X34847Y-92376D01*
X36881Y-92494D01*
X38025Y-92500D01*
X30600Y-99925D01*
X30594Y-98781D01*
X30476Y-96747D01*
X30364Y-95857D01*
X30216Y-95050D01*
X30033Y-94328D01*
X29814Y-93690D01*
X29560Y-93136D01*
X29270Y-92667D01*
X28945Y-92282D01*
X30382Y-90845D01*
X30767Y-91170D01*
D02*
G37*
D13*
X63500Y-100000D02*
Y-76200D01*
X58420Y-71120D02*
X63500Y-76200D01*
X27940Y-89840D02*
X38100Y-100000D01*
X27940Y-89840D02*
Y-81280D01*
X12700Y-100000D02*
Y-86360D01*
X7620Y-81280D02*
X12700Y-86360D01*
X-12700Y-100000D02*
Y-86360D01*
X-7620Y-81280D01*
X-17780Y-80819D02*
Y-71120D01*
X-37498Y-99398D02*
X-36359D01*
X-17780Y-80819D01*
X44657Y-22860D02*
X45720D01*
X-27940Y-20320D02*
X-21082Y-27178D01*
X40339D01*
X77794Y-50299D02*
Y-22375D01*
X45720Y-10160D02*
X46783D01*
X51101Y-5842D01*
X61261D01*
X77794Y-22375D01*
X40339Y-27178D02*
X44657Y-22860D01*
X70299Y-57794D02*
X77794Y-50299D01*
X-77794Y-50300D02*
Y-32074D01*
X-70300Y-57794D02*
X70299D01*
X-77794Y-32074D02*
X-58420Y-12700D01*
X-77794Y-50300D02*
X-70300Y-57794D01*
D14*
X65000Y10000D02*
D03*
X-65000D02*
D03*
D15*
X-63500Y-100000D02*
D03*
D16*
X-38100D02*
D03*
X-12700D02*
D03*
X12700D02*
D03*
X38100D02*
D03*
X63500D02*
D03*
D17*
X43600Y9040D02*
D03*
X-42800D02*
D03*
D18*
X43400Y-44460D02*
D03*
X-43000D02*
D03*
D19*
X58420Y-71120D02*
D03*
X48260Y-81280D02*
D03*
X38100Y-71120D02*
D03*
X27940Y-81280D02*
D03*
X17780Y-71120D02*
D03*
X7620Y-81280D02*
D03*
X-7620D02*
D03*
X-17780Y-71120D02*
D03*
X-27940Y-81280D02*
D03*
X-38100Y-71120D02*
D03*
X-48260Y-81280D02*
D03*
X-58420Y-71120D02*
D03*
X10160Y-10160D02*
D03*
X17780Y-2540D02*
D03*
X-17780D02*
D03*
X-5080Y0D02*
D03*
X5080D02*
D03*
X-10160Y-10160D02*
D03*
X45720Y-22860D02*
D03*
X-27940Y-20320D02*
D03*
X27940D02*
D03*
X-45720Y-10160D02*
D03*
X45720D02*
D03*
X30480Y-7620D02*
D03*
X-55880Y-30480D02*
D03*
X-45720Y-22860D02*
D03*
X55880Y-30480D02*
D03*
X-30480Y-7620D02*
D03*
X-58420Y-12700D02*
D03*
X58420D02*
D03*
D20*
X76200Y-2540D02*
D03*
X-76200D02*
D03*
%TF.MD5,77f35e7713d88c22f1cea6c8c98b7f88*%
M02*
