%TF.GenerationSoftware,Altium Limited,Altium Designer,21.3.2 (30)*%
G04 Layer_Color=0*
%FSLAX44Y44*%
%MOMM*%
%TF.SameCoordinates,675AFF39-0D07-4396-8A84-043E8CC343DD*%
%TF.FilePolarity,Positive*%
%TF.FileFunction,Plated,1,4,PTH,Drill*%
%TF.Part,Single*%
G01*
G75*
%TA.AperFunction,ComponentDrill*%
%ADD38C,0.9000*%
%TA.AperFunction,ViaDrill,NotFilled*%
%ADD39C,0.3810*%
%ADD40C,0.2540*%
D38*
X-63500Y-100000D02*
D03*
X-38100D02*
D03*
X-12700D02*
D03*
X12700D02*
D03*
X38100D02*
D03*
X63500D02*
D03*
D39*
X58420Y-71120D02*
D03*
X48260Y-81280D02*
D03*
X38100Y-71120D02*
D03*
X27940Y-81280D02*
D03*
X17780Y-71120D02*
D03*
X7620Y-81280D02*
D03*
X-7620D02*
D03*
X-17780Y-71120D02*
D03*
X-27940Y-81280D02*
D03*
X-38100Y-71120D02*
D03*
X-48260Y-81280D02*
D03*
X-58420Y-71120D02*
D03*
X10160Y-10160D02*
D03*
X17780Y-2540D02*
D03*
X-17780D02*
D03*
X-5080Y0D02*
D03*
X5080D02*
D03*
X-10160Y-10160D02*
D03*
X45720Y-22860D02*
D03*
X-27940Y-20320D02*
D03*
X27940D02*
D03*
X-45720Y-10160D02*
D03*
X45720D02*
D03*
X30480Y-7620D02*
D03*
X-55880Y-30480D02*
D03*
X-45720Y-22860D02*
D03*
X55880Y-30480D02*
D03*
X-30480Y-7620D02*
D03*
X-58420Y-12700D02*
D03*
X58420D02*
D03*
D40*
X76200Y-2540D02*
D03*
X-76200D02*
D03*
%TF.MD5,69511e5f8094c0170d907f85a8c73dc6*%
M02*
