%TF.GenerationSoftware,Altium Limited,Altium Designer,21.3.2 (30)*%
G04 Layer_Color=0*
%FSLAX44Y44*%
%MOMM*%
%TF.SameCoordinates,675AFF39-0D07-4396-8A84-043E8CC343DD*%
%TF.FilePolarity,Positive*%
%TF.FileFunction,Profile,NP*%
%TF.Part,Single*%
G01*
G75*
%TA.AperFunction,Profile*%
%ADD33C,0.0254*%
G36*
X55000Y-45000D02*
Y-45985D01*
X55384Y-47917D01*
X56138Y-49737D01*
X57232Y-51375D01*
X58625Y-52768D01*
X60263Y-53862D01*
X62083Y-54616D01*
X64015Y-55000D01*
X65000D01*
X65985D01*
X67917Y-54616D01*
X69737Y-53862D01*
X71375Y-52768D01*
X72768Y-51375D01*
X73862Y-49737D01*
X74616Y-47917D01*
X75000Y-45985D01*
Y-45000D01*
Y-44015D01*
X74616Y-42083D01*
X73862Y-40263D01*
X72768Y-38625D01*
X71375Y-37232D01*
X69737Y-36138D01*
X67917Y-35384D01*
X65985Y-35000D01*
X65000D01*
X64015D01*
X62083Y-35384D01*
X60263Y-36138D01*
X58625Y-37232D01*
X57232Y-38625D01*
X56138Y-40263D01*
X55384Y-42083D01*
X55000Y-44015D01*
Y-45000D01*
D01*
D02*
G37*
G36*
X-75000D02*
Y-45985D01*
X-74616Y-47917D01*
X-73862Y-49737D01*
X-72768Y-51375D01*
X-71375Y-52768D01*
X-69737Y-53862D01*
X-67917Y-54616D01*
X-65985Y-55000D01*
X-65000D01*
X-64015D01*
X-62083Y-54616D01*
X-60263Y-53862D01*
X-58625Y-52768D01*
X-57232Y-51375D01*
X-56138Y-49737D01*
X-55384Y-47917D01*
X-55000Y-45985D01*
Y-45000D01*
Y-44015D01*
X-55384Y-42083D01*
X-56138Y-40263D01*
X-57232Y-38625D01*
X-58625Y-37232D01*
X-60263Y-36138D01*
X-62083Y-35384D01*
X-64015Y-35000D01*
X-65000D01*
X-65985D01*
X-67917Y-35384D01*
X-69737Y-36138D01*
X-71375Y-37232D01*
X-72768Y-38625D01*
X-73862Y-40263D01*
X-74616Y-42083D01*
X-75000Y-44015D01*
Y-45000D01*
D01*
D02*
G37*
D33*
X-85000Y-100000D02*
G03*
X-65000Y-120000I20000J0D01*
G01*
X65000Y-120000D01*
D02*
G03*
X85000Y-100000I0J20000D01*
G01*
Y10000D01*
D02*
G03*
X65000Y30000I-20000J0D01*
G01*
X53656Y30000D01*
D02*
G03*
X51888Y29268I-0J-2500D01*
G01*
X45732Y23112D01*
D02*
G02*
X43965Y22380I-1768J1768D01*
G01*
X-43965Y22380D01*
D02*
G02*
X-45732Y23112I0J2500D01*
G01*
X-51888Y29268D01*
D02*
G03*
X-53656Y30000I-1768J-1768D01*
G01*
X-65000D01*
D02*
G03*
X-85000Y10000I-0J-20000D01*
G01*
Y-100000D01*
%TF.MD5,5fbad20047e3224f7055367d633bef42*%
M02*
