%TF.GenerationSoftware,Altium Limited,Altium Designer,21.3.2 (30)*%
G04 Layer_Physical_Order=3*
G04 Layer_Color=16440176*
%FSLAX44Y44*%
%MOMM*%
%TF.SameCoordinates,675AFF39-0D07-4396-8A84-043E8CC343DD*%
%TF.FilePolarity,Positive*%
%TF.FileFunction,Copper,L3,Inr,Signal*%
%TF.Part,Single*%
G01*
G75*
%TA.AperFunction,Conductor*%
%ADD13C,0.2032*%
%TA.AperFunction,WasherPad*%
%ADD14C,1.1520*%
%TA.AperFunction,ComponentPad*%
%ADD15R,1.5000X1.5000*%
%ADD16C,1.5000*%
%ADD17O,1.1000X2.6000*%
%ADD18O,1.1000X2.1000*%
%TA.AperFunction,ViaPad*%
%ADD19C,0.7620*%
%ADD20C,0.5588*%
G36*
X70834Y29231D02*
X74474Y27724D01*
X77749Y25535D01*
X80535Y22749D01*
X82724Y19474D01*
X84231Y15834D01*
X85000Y11970D01*
Y10000D01*
Y-100000D01*
X85000Y-100000D01*
Y-101970D01*
X84231Y-105834D01*
X82724Y-109474D01*
X80535Y-112749D01*
X77749Y-115535D01*
X74474Y-117724D01*
X70834Y-119231D01*
X66970Y-120000D01*
X65000Y-120000D01*
X-65000Y-120000D01*
X-66970D01*
X-70834Y-119231D01*
X-74474Y-117724D01*
X-77749Y-115535D01*
X-80535Y-112749D01*
X-82724Y-109474D01*
X-84231Y-105834D01*
X-85000Y-101970D01*
Y-100000D01*
Y10000D01*
Y11970D01*
X-84231Y15834D01*
X-82724Y19474D01*
X-80535Y22749D01*
X-77749Y25535D01*
X-74474Y27724D01*
X-70834Y29231D01*
X-66970Y30000D01*
X-65000Y30000D01*
X-53656Y30000D01*
X-53656Y30000D01*
X-53656Y30000D01*
X-53655Y30000D01*
X-52499Y29727D01*
X-52471Y29715D01*
X-52062Y29442D01*
X-51888Y29268D01*
X-46677Y24057D01*
X-46947Y22531D01*
X-47991Y21731D01*
X-49157Y20210D01*
X-49891Y18440D01*
X-50141Y16540D01*
Y1540D01*
X-49891Y-360D01*
X-49157Y-2131D01*
X-48965Y-2381D01*
X-49845Y-3321D01*
X-50010Y-3210D01*
X-51101Y-2993D01*
X-51101Y-2993D01*
X-61261D01*
X-62351Y-3210D01*
X-63275Y-3828D01*
X-63275Y-3828D01*
X-79808Y-20361D01*
X-80426Y-21285D01*
X-80643Y-22375D01*
X-80643Y-22376D01*
Y-50299D01*
X-80643Y-50300D01*
X-80426Y-51390D01*
X-79808Y-52314D01*
X-72314Y-59808D01*
X-72314Y-59808D01*
X-71390Y-60426D01*
X-70300Y-60643D01*
X70299D01*
X70299Y-60643D01*
X71390Y-60426D01*
X72314Y-59808D01*
X79808Y-52314D01*
X79808Y-52314D01*
X80426Y-51390D01*
X80643Y-50299D01*
X80643Y-50299D01*
Y-32074D01*
X80643Y-32074D01*
X80426Y-30984D01*
X79808Y-30060D01*
X79808Y-30060D01*
X64500Y-14751D01*
X64454Y-14688D01*
X64372Y-14550D01*
X64295Y-14388D01*
X64224Y-14197D01*
X64162Y-13975D01*
X64142Y-13879D01*
X64377Y-12700D01*
X63923Y-10421D01*
X62632Y-8488D01*
X60699Y-7197D01*
X58420Y-6744D01*
X56141Y-7197D01*
X54208Y-8488D01*
X52917Y-10421D01*
X51675Y-10167D01*
X51677Y-10160D01*
X51223Y-7881D01*
X49932Y-5948D01*
X48837Y-5216D01*
X48786Y-3655D01*
X48791Y-3651D01*
X49957Y-2131D01*
X50691Y-360D01*
X50941Y1540D01*
Y16540D01*
X50691Y18440D01*
X49957Y20210D01*
X48791Y21731D01*
X47295Y22879D01*
X47091Y23053D01*
X46951Y24331D01*
X51888Y29268D01*
X51888Y29268D01*
Y29268D01*
X52899Y29893D01*
X52926Y29904D01*
X53409Y30000D01*
X53656Y30000D01*
X65000Y30000D01*
X66970D01*
X70834Y29231D01*
D02*
G37*
G36*
X-49585Y-5895D02*
X-49316Y-6087D01*
X-49029Y-6246D01*
X-48723Y-6373D01*
X-48399Y-6465D01*
X-48057Y-6525D01*
X-47697Y-6552D01*
X-47319Y-6545D01*
X-46923Y-6506D01*
X-46509Y-6432D01*
X-49462Y-10874D01*
X-49561Y-10404D01*
X-49792Y-9546D01*
X-49926Y-9158D01*
X-50228Y-8465D01*
X-50396Y-8159D01*
X-50577Y-7881D01*
X-50769Y-7630D01*
X-50973Y-7407D01*
X-49837Y-5669D01*
X-49585Y-5895D01*
D02*
G37*
G36*
X37933Y21110D02*
X37243Y20210D01*
X36509Y18440D01*
X36259Y16540D01*
Y1540D01*
X36509Y-360D01*
X37243Y-2131D01*
X38409Y-3651D01*
X39930Y-4817D01*
X40645Y-5114D01*
X41038Y-6651D01*
X40217Y-7881D01*
X39764Y-10160D01*
X40217Y-12439D01*
X41508Y-14372D01*
X43441Y-15663D01*
X44444Y-15863D01*
Y-17157D01*
X43441Y-17357D01*
X41508Y-18648D01*
X40217Y-20581D01*
X39764Y-22860D01*
X40217Y-25139D01*
X41033Y-26361D01*
X40354Y-27631D01*
X27315D01*
X26969Y-27232D01*
X26813Y-26690D01*
X27051Y-26125D01*
X27089Y-26107D01*
X27940Y-26277D01*
X30219Y-25823D01*
X32152Y-24532D01*
X33443Y-22599D01*
X33897Y-20320D01*
X33443Y-18041D01*
X32152Y-16108D01*
X30220Y-14817D01*
X30473Y-13575D01*
X30480Y-13577D01*
X32759Y-13123D01*
X34692Y-11832D01*
X35983Y-9899D01*
X36437Y-7620D01*
X35983Y-5341D01*
X34692Y-3408D01*
X32759Y-2117D01*
X30480Y-1664D01*
X28201Y-2117D01*
X26268Y-3408D01*
X24977Y-5341D01*
X24523Y-7620D01*
X24977Y-9899D01*
X26268Y-11832D01*
X28201Y-13123D01*
X27947Y-14365D01*
X27940Y-14363D01*
X25661Y-14817D01*
X23728Y-16108D01*
X22437Y-18041D01*
X21983Y-20320D01*
X22218Y-21499D01*
X22199Y-21595D01*
X22136Y-21817D01*
X22065Y-22008D01*
X21988Y-22170D01*
X21906Y-22308D01*
X21860Y-22371D01*
X16600Y-27631D01*
X-25600D01*
X-25959Y-27177D01*
X-25717Y-26079D01*
X-25497Y-25714D01*
X-23728Y-24532D01*
X-22437Y-22599D01*
X-21983Y-20320D01*
X-22437Y-18041D01*
X-23728Y-16108D01*
X-25661Y-14817D01*
X-27940Y-14363D01*
X-27947Y-14365D01*
X-28201Y-13123D01*
X-26268Y-11832D01*
X-24977Y-9899D01*
X-24523Y-7620D01*
X-24977Y-5341D01*
X-26268Y-3408D01*
X-28201Y-2117D01*
X-30480Y-1664D01*
X-32759Y-2117D01*
X-34692Y-3408D01*
X-35983Y-5341D01*
X-36437Y-7620D01*
X-35983Y-9899D01*
X-34692Y-11832D01*
X-32759Y-13123D01*
X-30480Y-13577D01*
X-30473Y-13575D01*
X-30220Y-14817D01*
X-32152Y-16108D01*
X-33443Y-18041D01*
X-33646Y-19059D01*
X-35099Y-20011D01*
X-35099Y-20011D01*
X-39970D01*
X-40048Y-19999D01*
X-40203Y-19960D01*
X-40373Y-19899D01*
X-40558Y-19814D01*
X-40759Y-19701D01*
X-40841Y-19647D01*
X-41508Y-18648D01*
X-43441Y-17357D01*
X-44444Y-17157D01*
Y-15863D01*
X-43441Y-15663D01*
X-41508Y-14372D01*
X-40217Y-12439D01*
X-39764Y-10160D01*
X-40217Y-7881D01*
X-40916Y-6834D01*
X-40913Y-6547D01*
X-40388Y-5339D01*
X-39130Y-4817D01*
X-37609Y-3651D01*
X-36443Y-2131D01*
X-35709Y-360D01*
X-35459Y1540D01*
Y16540D01*
X-35709Y18440D01*
X-36443Y20210D01*
X-37133Y21110D01*
X-36507Y22380D01*
X37307Y22380D01*
X37933Y21110D01*
D02*
G37*
G36*
X62237Y-13189D02*
X62267Y-13616D01*
X62321Y-14020D01*
X62398Y-14401D01*
X62499Y-14758D01*
X62622Y-15092D01*
X62770Y-15403D01*
X62940Y-15690D01*
X63134Y-15954D01*
X63351Y-16195D01*
X61915Y-17631D01*
X61674Y-17414D01*
X61410Y-17220D01*
X61123Y-17050D01*
X60812Y-16903D01*
X60478Y-16779D01*
X60121Y-16678D01*
X59740Y-16601D01*
X59336Y-16547D01*
X58909Y-16517D01*
X58458Y-16510D01*
X62230Y-12738D01*
X62237Y-13189D01*
D02*
G37*
G36*
X-49932Y-14372D02*
X-47999Y-15663D01*
X-46996Y-15863D01*
Y-17157D01*
X-47999Y-17357D01*
X-49932Y-18648D01*
X-51223Y-20581D01*
X-51677Y-22860D01*
X-51246Y-25023D01*
X-51500Y-25335D01*
X-52261Y-25872D01*
X-53601Y-24977D01*
X-55880Y-24523D01*
X-58159Y-24977D01*
X-60092Y-26268D01*
X-61383Y-28201D01*
X-61837Y-30480D01*
X-61459Y-32376D01*
X-62126Y-33256D01*
X-62439Y-33465D01*
X-63661Y-33222D01*
X-63840D01*
X-64015Y-33187D01*
X-65985D01*
X-66160Y-33222D01*
X-66339D01*
X-68271Y-33606D01*
X-68436Y-33675D01*
X-68611Y-33709D01*
X-70430Y-34463D01*
X-70579Y-34562D01*
X-70744Y-34631D01*
X-72382Y-35725D01*
X-72508Y-35852D01*
X-72656Y-35951D01*
X-73675Y-36969D01*
X-74945Y-36443D01*
Y-23555D01*
X-65281Y-13892D01*
X-64066Y-14260D01*
X-63923Y-14979D01*
X-62632Y-16912D01*
X-60699Y-18203D01*
X-58420Y-18657D01*
X-56141Y-18203D01*
X-54208Y-16912D01*
X-52917Y-14979D01*
X-52463Y-12700D01*
X-52465Y-12693D01*
X-51223Y-12440D01*
X-49932Y-14372D01*
D02*
G37*
G36*
X27902Y-24130D02*
X27451Y-24137D01*
X27024Y-24167D01*
X26620Y-24221D01*
X26239Y-24298D01*
X25882Y-24399D01*
X25548Y-24523D01*
X25237Y-24670D01*
X24950Y-24840D01*
X24686Y-25034D01*
X24445Y-25251D01*
X23009Y-23815D01*
X23226Y-23574D01*
X23420Y-23310D01*
X23590Y-23023D01*
X23737Y-22712D01*
X23861Y-22378D01*
X23962Y-22021D01*
X24039Y-21640D01*
X24093Y-21236D01*
X24123Y-20809D01*
X24130Y-20358D01*
X27902Y-24130D01*
D02*
G37*
G36*
X-42675Y-20507D02*
X-42352Y-20787D01*
X-42028Y-21035D01*
X-41704Y-21250D01*
X-41381Y-21431D01*
X-41057Y-21580D01*
X-40733Y-21695D01*
X-40409Y-21778D01*
X-40086Y-21827D01*
X-39762Y-21844D01*
Y-23876D01*
X-40086Y-23893D01*
X-40409Y-23942D01*
X-40733Y-24025D01*
X-41057Y-24140D01*
X-41381Y-24289D01*
X-41704Y-24470D01*
X-42028Y-24685D01*
X-42352Y-24933D01*
X-42675Y-25213D01*
X-42999Y-25527D01*
Y-20193D01*
X-42675Y-20507D01*
D02*
G37*
G36*
X53159Y-33147D02*
X52835Y-32833D01*
X52512Y-32553D01*
X52188Y-32305D01*
X51864Y-32090D01*
X51541Y-31909D01*
X51217Y-31760D01*
X50893Y-31645D01*
X50570Y-31562D01*
X50246Y-31512D01*
X49922Y-31496D01*
Y-29464D01*
X50246Y-29448D01*
X50570Y-29398D01*
X50893Y-29315D01*
X51217Y-29200D01*
X51541Y-29051D01*
X51864Y-28870D01*
X52188Y-28655D01*
X52512Y-28407D01*
X52835Y-28127D01*
X53159Y-27813D01*
Y-33147D01*
D02*
G37*
G36*
X-52835Y-28127D02*
X-52512Y-28407D01*
X-52188Y-28655D01*
X-51864Y-28870D01*
X-51541Y-29051D01*
X-51217Y-29200D01*
X-50893Y-29315D01*
X-50570Y-29398D01*
X-50246Y-29448D01*
X-49922Y-29464D01*
Y-31496D01*
X-50246Y-31512D01*
X-50570Y-31562D01*
X-50893Y-31645D01*
X-51217Y-31760D01*
X-51541Y-31909D01*
X-51864Y-32090D01*
X-52188Y-32305D01*
X-52512Y-32553D01*
X-52835Y-32833D01*
X-53159Y-33147D01*
Y-27813D01*
X-52835Y-28127D01*
D02*
G37*
G36*
X52465Y-12693D02*
X52463Y-12700D01*
X52917Y-14979D01*
X54208Y-16912D01*
X56141Y-18203D01*
X58420Y-18657D01*
X59599Y-18422D01*
X59695Y-18441D01*
X59917Y-18504D01*
X60108Y-18575D01*
X60270Y-18652D01*
X60408Y-18734D01*
X60471Y-18780D01*
X74945Y-33254D01*
Y-36443D01*
X73675Y-36969D01*
X72656Y-35951D01*
X72508Y-35851D01*
X72382Y-35725D01*
X70744Y-34631D01*
X70579Y-34562D01*
X70430Y-34463D01*
X68611Y-33709D01*
X68436Y-33675D01*
X68271Y-33606D01*
X66339Y-33222D01*
X66160D01*
X65985Y-33187D01*
X64015D01*
X63840Y-33222D01*
X63661D01*
X62439Y-33465D01*
X62126Y-33256D01*
X61459Y-32376D01*
X61837Y-30480D01*
X61383Y-28201D01*
X60092Y-26268D01*
X58159Y-24977D01*
X55880Y-24523D01*
X53601Y-24977D01*
X52261Y-25872D01*
X51500Y-25335D01*
X51246Y-25023D01*
X51677Y-22860D01*
X51223Y-20581D01*
X49932Y-18648D01*
X47999Y-17357D01*
X46996Y-17157D01*
Y-15863D01*
X47999Y-15663D01*
X49932Y-14372D01*
X51223Y-12440D01*
X52465Y-12693D01*
D02*
G37*
G36*
X37957Y-34599D02*
X37043Y-35790D01*
X36309Y-37560D01*
X36059Y-39460D01*
Y-49460D01*
X36309Y-51360D01*
X37043Y-53131D01*
X37461Y-53675D01*
X36834Y-54945D01*
X-36435D01*
X-37061Y-53675D01*
X-36643Y-53131D01*
X-35910Y-51360D01*
X-35659Y-49460D01*
Y-39460D01*
X-35910Y-37560D01*
X-36643Y-35790D01*
X-37557Y-34599D01*
X-37092Y-33329D01*
X-34406D01*
X-31176Y-36558D01*
X-31176Y-36558D01*
X-30252Y-37176D01*
X-29162Y-37393D01*
X-29162Y-37393D01*
X19463D01*
X19463Y-37393D01*
X20554Y-37176D01*
X21478Y-36558D01*
X24707Y-33329D01*
X37492D01*
X37957Y-34599D01*
D02*
G37*
%LPC*%
G36*
X65000Y17603D02*
X63032Y17344D01*
X61199Y16584D01*
X59624Y15376D01*
X58416Y13801D01*
X57656Y11968D01*
X57397Y10000D01*
X57656Y8032D01*
X58416Y6198D01*
X59624Y4624D01*
X61199Y3416D01*
X63032Y2656D01*
X65000Y2397D01*
X66968Y2656D01*
X68801Y3416D01*
X70376Y4624D01*
X71584Y6198D01*
X72344Y8032D01*
X72603Y10000D01*
X72344Y11968D01*
X71584Y13801D01*
X70376Y15376D01*
X68801Y16584D01*
X66968Y17344D01*
X65000Y17603D01*
D02*
G37*
G36*
X-65000D02*
X-66968Y17344D01*
X-68801Y16584D01*
X-70376Y15376D01*
X-71584Y13801D01*
X-72344Y11968D01*
X-72603Y10000D01*
X-72344Y8032D01*
X-71584Y6198D01*
X-70376Y4624D01*
X-68801Y3416D01*
X-66968Y2656D01*
X-65000Y2397D01*
X-63032Y2656D01*
X-61199Y3416D01*
X-59624Y4624D01*
X-58416Y6198D01*
X-57656Y8032D01*
X-57397Y10000D01*
X-57656Y11968D01*
X-58416Y13801D01*
X-59624Y15376D01*
X-61199Y16584D01*
X-63032Y17344D01*
X-65000Y17603D01*
D02*
G37*
G36*
X76200Y2380D02*
X74317Y2006D01*
X72721Y939D01*
X71654Y-657D01*
X71280Y-2540D01*
X71654Y-4423D01*
X72721Y-6019D01*
X74317Y-7086D01*
X76200Y-7461D01*
X78083Y-7086D01*
X79679Y-6019D01*
X80746Y-4423D01*
X81121Y-2540D01*
X80746Y-657D01*
X79679Y939D01*
X78083Y2006D01*
X76200Y2380D01*
D02*
G37*
G36*
X-76200D02*
X-78083Y2006D01*
X-79679Y939D01*
X-80746Y-657D01*
X-81121Y-2540D01*
X-80746Y-4423D01*
X-79679Y-6019D01*
X-78083Y-7086D01*
X-76200Y-7461D01*
X-74317Y-7086D01*
X-72721Y-6019D01*
X-71654Y-4423D01*
X-71280Y-2540D01*
X-71654Y-657D01*
X-72721Y939D01*
X-74317Y2006D01*
X-76200Y2380D01*
D02*
G37*
G36*
X58420Y-65163D02*
X56141Y-65617D01*
X54208Y-66908D01*
X52917Y-68841D01*
X52463Y-71120D01*
X52917Y-73399D01*
X54208Y-75332D01*
X56141Y-76623D01*
X58420Y-77077D01*
X60699Y-76623D01*
X62632Y-75332D01*
X63923Y-73399D01*
X64377Y-71120D01*
X63923Y-68841D01*
X62632Y-66908D01*
X60699Y-65617D01*
X58420Y-65163D01*
D02*
G37*
G36*
X38100D02*
X35821Y-65617D01*
X33888Y-66908D01*
X32597Y-68841D01*
X32143Y-71120D01*
X32597Y-73399D01*
X33888Y-75332D01*
X35821Y-76623D01*
X38100Y-77077D01*
X40379Y-76623D01*
X42312Y-75332D01*
X43603Y-73399D01*
X44057Y-71120D01*
X43603Y-68841D01*
X42312Y-66908D01*
X40379Y-65617D01*
X38100Y-65163D01*
D02*
G37*
G36*
X17780D02*
X15501Y-65617D01*
X13568Y-66908D01*
X12277Y-68841D01*
X11824Y-71120D01*
X12277Y-73399D01*
X13568Y-75332D01*
X15501Y-76623D01*
X17780Y-77077D01*
X20059Y-76623D01*
X21992Y-75332D01*
X23283Y-73399D01*
X23737Y-71120D01*
X23283Y-68841D01*
X21992Y-66908D01*
X20059Y-65617D01*
X17780Y-65163D01*
D02*
G37*
G36*
X-17780D02*
X-20059Y-65617D01*
X-21992Y-66908D01*
X-23283Y-68841D01*
X-23737Y-71120D01*
X-23283Y-73399D01*
X-21992Y-75332D01*
X-20059Y-76623D01*
X-17780Y-77077D01*
X-15501Y-76623D01*
X-13568Y-75332D01*
X-12277Y-73399D01*
X-11824Y-71120D01*
X-12277Y-68841D01*
X-13568Y-66908D01*
X-15501Y-65617D01*
X-17780Y-65163D01*
D02*
G37*
G36*
X-38100D02*
X-40379Y-65617D01*
X-42312Y-66908D01*
X-43603Y-68841D01*
X-44057Y-71120D01*
X-43603Y-73399D01*
X-42312Y-75332D01*
X-40379Y-76623D01*
X-38100Y-77077D01*
X-35821Y-76623D01*
X-33888Y-75332D01*
X-32597Y-73399D01*
X-32143Y-71120D01*
X-32597Y-68841D01*
X-33888Y-66908D01*
X-35821Y-65617D01*
X-38100Y-65163D01*
D02*
G37*
G36*
X-58420D02*
X-60699Y-65617D01*
X-62632Y-66908D01*
X-63923Y-68841D01*
X-64377Y-71120D01*
X-63923Y-73399D01*
X-62632Y-75332D01*
X-60699Y-76623D01*
X-58420Y-77077D01*
X-56141Y-76623D01*
X-54208Y-75332D01*
X-52917Y-73399D01*
X-52463Y-71120D01*
X-52917Y-68841D01*
X-54208Y-66908D01*
X-56141Y-65617D01*
X-58420Y-65163D01*
D02*
G37*
G36*
X48260Y-75324D02*
X45981Y-75777D01*
X44048Y-77068D01*
X42757Y-79001D01*
X42304Y-81280D01*
X42757Y-83559D01*
X44048Y-85492D01*
X45981Y-86783D01*
X48260Y-87236D01*
X50539Y-86783D01*
X52472Y-85492D01*
X53763Y-83559D01*
X54216Y-81280D01*
X53763Y-79001D01*
X52472Y-77068D01*
X50539Y-75777D01*
X48260Y-75324D01*
D02*
G37*
G36*
X27940D02*
X25661Y-75777D01*
X23728Y-77068D01*
X22437Y-79001D01*
X21983Y-81280D01*
X22437Y-83559D01*
X23728Y-85492D01*
X25661Y-86783D01*
X27940Y-87236D01*
X30219Y-86783D01*
X32152Y-85492D01*
X33443Y-83559D01*
X33897Y-81280D01*
X33443Y-79001D01*
X32152Y-77068D01*
X30219Y-75777D01*
X27940Y-75324D01*
D02*
G37*
G36*
X7620D02*
X5341Y-75777D01*
X3408Y-77068D01*
X2117Y-79001D01*
X1664Y-81280D01*
X2117Y-83559D01*
X3408Y-85492D01*
X5341Y-86783D01*
X7620Y-87236D01*
X9899Y-86783D01*
X11832Y-85492D01*
X13123Y-83559D01*
X13577Y-81280D01*
X13123Y-79001D01*
X11832Y-77068D01*
X9899Y-75777D01*
X7620Y-75324D01*
D02*
G37*
G36*
X-7620D02*
X-9899Y-75777D01*
X-11832Y-77068D01*
X-13123Y-79001D01*
X-13577Y-81280D01*
X-13123Y-83559D01*
X-11832Y-85492D01*
X-9899Y-86783D01*
X-7620Y-87236D01*
X-5341Y-86783D01*
X-3408Y-85492D01*
X-2117Y-83559D01*
X-1664Y-81280D01*
X-2117Y-79001D01*
X-3408Y-77068D01*
X-5341Y-75777D01*
X-7620Y-75324D01*
D02*
G37*
G36*
X-27940D02*
X-30219Y-75777D01*
X-32152Y-77068D01*
X-33443Y-79001D01*
X-33897Y-81280D01*
X-33443Y-83559D01*
X-32152Y-85492D01*
X-30219Y-86783D01*
X-27940Y-87236D01*
X-25661Y-86783D01*
X-23728Y-85492D01*
X-22437Y-83559D01*
X-21983Y-81280D01*
X-22437Y-79001D01*
X-23728Y-77068D01*
X-25661Y-75777D01*
X-27940Y-75324D01*
D02*
G37*
G36*
X-48260D02*
X-50539Y-75777D01*
X-52472Y-77068D01*
X-53763Y-79001D01*
X-54216Y-81280D01*
X-53763Y-83559D01*
X-52472Y-85492D01*
X-50539Y-86783D01*
X-48260Y-87236D01*
X-45981Y-86783D01*
X-44048Y-85492D01*
X-42757Y-83559D01*
X-42304Y-81280D01*
X-42757Y-79001D01*
X-44048Y-77068D01*
X-45981Y-75777D01*
X-48260Y-75324D01*
D02*
G37*
G36*
X-54222Y-90722D02*
X-72778D01*
Y-109278D01*
X-54222D01*
Y-90722D01*
D02*
G37*
G36*
X63500Y-90642D02*
X61078Y-90961D01*
X58821Y-91896D01*
X56883Y-93383D01*
X55396Y-95321D01*
X54461Y-97578D01*
X54142Y-100000D01*
X54461Y-102422D01*
X55396Y-104679D01*
X56883Y-106617D01*
X58821Y-108104D01*
X61078Y-109039D01*
X63500Y-109358D01*
X65922Y-109039D01*
X68179Y-108104D01*
X70117Y-106617D01*
X71604Y-104679D01*
X72539Y-102422D01*
X72858Y-100000D01*
X72539Y-97578D01*
X71604Y-95321D01*
X70117Y-93383D01*
X68179Y-91896D01*
X65922Y-90961D01*
X63500Y-90642D01*
D02*
G37*
G36*
X38100D02*
X35678Y-90961D01*
X33421Y-91896D01*
X31483Y-93383D01*
X29996Y-95321D01*
X29061Y-97578D01*
X28742Y-100000D01*
X29061Y-102422D01*
X29996Y-104679D01*
X31483Y-106617D01*
X33421Y-108104D01*
X35678Y-109039D01*
X38100Y-109358D01*
X40522Y-109039D01*
X42779Y-108104D01*
X44717Y-106617D01*
X46204Y-104679D01*
X47139Y-102422D01*
X47458Y-100000D01*
X47139Y-97578D01*
X46204Y-95321D01*
X44717Y-93383D01*
X42779Y-91896D01*
X40522Y-90961D01*
X38100Y-90642D01*
D02*
G37*
G36*
X12700D02*
X10278Y-90961D01*
X8021Y-91896D01*
X6083Y-93383D01*
X4596Y-95321D01*
X3661Y-97578D01*
X3342Y-100000D01*
X3661Y-102422D01*
X4596Y-104679D01*
X6083Y-106617D01*
X8021Y-108104D01*
X10278Y-109039D01*
X12700Y-109358D01*
X15122Y-109039D01*
X17379Y-108104D01*
X19317Y-106617D01*
X20804Y-104679D01*
X21739Y-102422D01*
X22058Y-100000D01*
X21739Y-97578D01*
X20804Y-95321D01*
X19317Y-93383D01*
X17379Y-91896D01*
X15122Y-90961D01*
X12700Y-90642D01*
D02*
G37*
G36*
X-12700D02*
X-15122Y-90961D01*
X-17379Y-91896D01*
X-19317Y-93383D01*
X-20804Y-95321D01*
X-21739Y-97578D01*
X-22058Y-100000D01*
X-21739Y-102422D01*
X-20804Y-104679D01*
X-19317Y-106617D01*
X-17379Y-108104D01*
X-15122Y-109039D01*
X-12700Y-109358D01*
X-10278Y-109039D01*
X-8021Y-108104D01*
X-6083Y-106617D01*
X-4596Y-104679D01*
X-3661Y-102422D01*
X-3342Y-100000D01*
X-3661Y-97578D01*
X-4596Y-95321D01*
X-6083Y-93383D01*
X-8021Y-91896D01*
X-10278Y-90961D01*
X-12700Y-90642D01*
D02*
G37*
G36*
X-38100D02*
X-40522Y-90961D01*
X-42779Y-91896D01*
X-44717Y-93383D01*
X-46204Y-95321D01*
X-47139Y-97578D01*
X-47458Y-100000D01*
X-47139Y-102422D01*
X-46204Y-104679D01*
X-44717Y-106617D01*
X-42779Y-108104D01*
X-40522Y-109039D01*
X-38100Y-109358D01*
X-35678Y-109039D01*
X-33421Y-108104D01*
X-31483Y-106617D01*
X-29996Y-104679D01*
X-29061Y-102422D01*
X-28742Y-100000D01*
X-29061Y-97578D01*
X-29996Y-95321D01*
X-31483Y-93383D01*
X-33421Y-91896D01*
X-35678Y-90961D01*
X-38100Y-90642D01*
D02*
G37*
G36*
X5080Y5957D02*
X2801Y5503D01*
X868Y4212D01*
X635Y3863D01*
X-635D01*
X-868Y4212D01*
X-2801Y5503D01*
X-5080Y5957D01*
X-7359Y5503D01*
X-9292Y4212D01*
X-10583Y2279D01*
X-11036Y0D01*
X-11035Y-7D01*
X-12277Y-260D01*
X-13568Y1672D01*
X-15501Y2963D01*
X-17780Y3417D01*
X-20059Y2963D01*
X-21992Y1672D01*
X-23283Y-261D01*
X-23737Y-2540D01*
X-23283Y-4819D01*
X-21992Y-6752D01*
X-20059Y-8043D01*
X-17780Y-8497D01*
X-16824Y-8306D01*
X-15926Y-9204D01*
X-16116Y-10160D01*
X-15663Y-12439D01*
X-14372Y-14372D01*
X-12439Y-15663D01*
X-10160Y-16116D01*
X-7881Y-15663D01*
X-5948Y-14372D01*
X-4657Y-12439D01*
X-4203Y-10160D01*
X-4657Y-7881D01*
X-5136Y-7164D01*
X-5133Y-7099D01*
X-4493Y-5840D01*
X-2801Y-5503D01*
X-868Y-4212D01*
X-635Y-3863D01*
X635D01*
X868Y-4212D01*
X2801Y-5503D01*
X4493Y-5840D01*
X5133Y-7099D01*
X5136Y-7164D01*
X4657Y-7881D01*
X4203Y-10160D01*
X4657Y-12439D01*
X5948Y-14372D01*
X7881Y-15663D01*
X10160Y-16116D01*
X12439Y-15663D01*
X14372Y-14372D01*
X15663Y-12439D01*
X16116Y-10160D01*
X15926Y-9204D01*
X16824Y-8306D01*
X17780Y-8497D01*
X20059Y-8043D01*
X21992Y-6752D01*
X23283Y-4819D01*
X23737Y-2540D01*
X23283Y-261D01*
X21992Y1672D01*
X20059Y2963D01*
X17780Y3417D01*
X15501Y2963D01*
X13568Y1672D01*
X12277Y-260D01*
X11035Y-7D01*
X11036Y0D01*
X10583Y2279D01*
X9292Y4212D01*
X7359Y5503D01*
X5080Y5957D01*
D02*
G37*
%LPD*%
D13*
X-33226Y-30480D02*
X-29162Y-34544D01*
X19463D01*
X23527Y-30480D01*
X-27479D02*
X17780D01*
X27940Y-20320D01*
X-35099Y-22860D02*
X-27479Y-30480D01*
X23527D02*
X55880D01*
X-55880D02*
X-33226D01*
X-45720Y-22860D02*
X-35099D01*
X-77794Y-22375D02*
X-61261Y-5842D01*
X-51101D02*
X-46783Y-10160D01*
X-61261Y-5842D02*
X-51101D01*
X-46783Y-10160D02*
X-45720D01*
X58420Y-12700D02*
X77794Y-32074D01*
X-70300Y-57794D02*
X70299D01*
X-77794Y-50300D02*
Y-22375D01*
Y-50300D02*
X-70300Y-57794D01*
X77794Y-50299D02*
Y-32074D01*
X70299Y-57794D02*
X77794Y-50299D01*
D14*
X65000Y10000D02*
D03*
X-65000D02*
D03*
D15*
X-63500Y-100000D02*
D03*
D16*
X-38100D02*
D03*
X-12700D02*
D03*
X12700D02*
D03*
X38100D02*
D03*
X63500D02*
D03*
D17*
X43600Y9040D02*
D03*
X-42800D02*
D03*
D18*
X43400Y-44460D02*
D03*
X-43000D02*
D03*
D19*
X58420Y-71120D02*
D03*
X48260Y-81280D02*
D03*
X38100Y-71120D02*
D03*
X27940Y-81280D02*
D03*
X17780Y-71120D02*
D03*
X7620Y-81280D02*
D03*
X-7620D02*
D03*
X-17780Y-71120D02*
D03*
X-27940Y-81280D02*
D03*
X-38100Y-71120D02*
D03*
X-48260Y-81280D02*
D03*
X-58420Y-71120D02*
D03*
X10160Y-10160D02*
D03*
X17780Y-2540D02*
D03*
X-17780D02*
D03*
X-5080Y0D02*
D03*
X5080D02*
D03*
X-10160Y-10160D02*
D03*
X45720Y-22860D02*
D03*
X-27940Y-20320D02*
D03*
X27940D02*
D03*
X-45720Y-10160D02*
D03*
X45720D02*
D03*
X30480Y-7620D02*
D03*
X-55880Y-30480D02*
D03*
X-45720Y-22860D02*
D03*
X55880Y-30480D02*
D03*
X-30480Y-7620D02*
D03*
X-58420Y-12700D02*
D03*
X58420D02*
D03*
D20*
X76200Y-2540D02*
D03*
X-76200D02*
D03*
%TF.MD5,f10b93b463266aa7a24a2f5d69207ee7*%
M02*
