%TF.GenerationSoftware,Altium Limited,Altium Designer,21.3.2 (30)*%
G04 Layer_Physical_Order=2*
G04 Layer_Color=36540*
%FSLAX44Y44*%
%MOMM*%
%TF.SameCoordinates,675AFF39-0D07-4396-8A84-043E8CC343DD*%
%TF.FilePolarity,Positive*%
%TF.FileFunction,Copper,L2,Inr,Signal*%
%TF.Part,Single*%
G01*
G75*
%TA.AperFunction,Conductor*%
%ADD13C,0.2032*%
%TA.AperFunction,WasherPad*%
%ADD14C,1.1520*%
%TA.AperFunction,ComponentPad*%
%ADD15R,1.5000X1.5000*%
%ADD16C,1.5000*%
%ADD17O,1.1000X2.6000*%
%ADD18O,1.1000X2.1000*%
%TA.AperFunction,ViaPad*%
%ADD19C,0.7620*%
%ADD20C,0.5588*%
%TA.AperFunction,Conductor*%
%ADD21C,0.1524*%
G36*
X70834Y29231D02*
X74474Y27724D01*
X77749Y25535D01*
X80535Y22749D01*
X82724Y19474D01*
X84231Y15834D01*
X85000Y11970D01*
Y-6169D01*
X83730Y-6554D01*
X83435Y-6113D01*
X81030Y-3707D01*
X80992Y-3645D01*
X80954Y-3564D01*
X80929Y-3500D01*
X81121Y-2540D01*
X80746Y-657D01*
X79679Y939D01*
X78083Y2006D01*
X76200Y2380D01*
X74317Y2006D01*
X72721Y939D01*
X71654Y-657D01*
X71280Y-2540D01*
X71654Y-4423D01*
X72721Y-6019D01*
X74317Y-7086D01*
X76200Y-7461D01*
X77160Y-7269D01*
X77224Y-7294D01*
X77304Y-7332D01*
X77367Y-7370D01*
X79014Y-9017D01*
Y-27606D01*
X77841Y-28092D01*
X64500Y-14751D01*
X64454Y-14688D01*
X64372Y-14550D01*
X64295Y-14388D01*
X64224Y-14197D01*
X64162Y-13975D01*
X64142Y-13879D01*
X64377Y-12700D01*
X63923Y-10421D01*
X62632Y-8488D01*
X60699Y-7197D01*
X58420Y-6744D01*
X56141Y-7197D01*
X54208Y-8488D01*
X52917Y-10421D01*
X51675Y-10167D01*
X51677Y-10160D01*
X51223Y-7881D01*
X49932Y-5948D01*
X48837Y-5216D01*
X48786Y-3655D01*
X48791Y-3651D01*
X49957Y-2131D01*
X50691Y-360D01*
X50941Y1540D01*
Y16540D01*
X50691Y18440D01*
X49957Y20210D01*
X48791Y21731D01*
X47295Y22879D01*
X47091Y23053D01*
X46951Y24331D01*
X51888Y29268D01*
X51888Y29268D01*
Y29268D01*
X52899Y29893D01*
X52926Y29904D01*
X53409Y30000D01*
X53656Y30000D01*
X65000Y30000D01*
X66970D01*
X70834Y29231D01*
D02*
G37*
G36*
X-53656Y30000D02*
X-53656Y30000D01*
X-53655Y30000D01*
X-52499Y29727D01*
X-52471Y29715D01*
X-52062Y29442D01*
X-51888Y29268D01*
X-46677Y24057D01*
X-46947Y22531D01*
X-47991Y21731D01*
X-49157Y20210D01*
X-49891Y18440D01*
X-50141Y16540D01*
Y1540D01*
X-49891Y-360D01*
X-49157Y-2131D01*
X-48184Y-3399D01*
X-48142Y-3687D01*
X-48218Y-4347D01*
X-48409Y-4931D01*
X-49932Y-5948D01*
X-51223Y-7881D01*
X-51677Y-10160D01*
X-51675Y-10167D01*
X-52917Y-10421D01*
X-54208Y-8488D01*
X-56141Y-7197D01*
X-58420Y-6744D01*
X-60699Y-7197D01*
X-62632Y-8488D01*
X-63923Y-10421D01*
X-64377Y-12700D01*
X-64142Y-13879D01*
X-64162Y-13975D01*
X-64224Y-14197D01*
X-64295Y-14388D01*
X-64372Y-14550D01*
X-64454Y-14688D01*
X-64500Y-14751D01*
X-77841Y-28092D01*
X-79014Y-27606D01*
Y-9017D01*
X-77367Y-7370D01*
X-77305Y-7332D01*
X-77224Y-7294D01*
X-77160Y-7269D01*
X-76200Y-7461D01*
X-74317Y-7086D01*
X-72721Y-6019D01*
X-71654Y-4423D01*
X-71280Y-2540D01*
X-71654Y-657D01*
X-72721Y939D01*
X-74317Y2006D01*
X-76200Y2380D01*
X-78083Y2006D01*
X-79679Y939D01*
X-80746Y-657D01*
X-81121Y-2540D01*
X-80929Y-3500D01*
X-80954Y-3564D01*
X-80992Y-3644D01*
X-81030Y-3707D01*
X-83435Y-6113D01*
X-83730Y-6554D01*
X-85000Y-6169D01*
Y11970D01*
X-84231Y15834D01*
X-82724Y19474D01*
X-80535Y22749D01*
X-77749Y25535D01*
X-74474Y27724D01*
X-70834Y29231D01*
X-66970Y30000D01*
X-65000Y30000D01*
X-53656Y30000D01*
X-53656Y30000D01*
D02*
G37*
G36*
X-1263Y-489D02*
X-1233Y-916D01*
X-1179Y-1320D01*
X-1102Y-1701D01*
X-1001Y-2058D01*
X-878Y-2392D01*
X-730Y-2703D01*
X-560Y-2990D01*
X-366Y-3254D01*
X-149Y-3495D01*
X-1585Y-4931D01*
X-1826Y-4714D01*
X-2090Y-4520D01*
X-2377Y-4350D01*
X-2688Y-4202D01*
X-3022Y-4079D01*
X-3379Y-3978D01*
X-3760Y-3901D01*
X-4164Y-3847D01*
X-4591Y-3817D01*
X-5042Y-3810D01*
X-1270Y-38D01*
X-1263Y-489D01*
D02*
G37*
G36*
X78999Y-2894D02*
X79022Y-3204D01*
X79062Y-3497D01*
X79119Y-3773D01*
X79193Y-4034D01*
X79285Y-4277D01*
X79394Y-4505D01*
X79520Y-4715D01*
X79664Y-4909D01*
X79825Y-5087D01*
X78747Y-6165D01*
X78569Y-6004D01*
X78375Y-5860D01*
X78165Y-5734D01*
X77937Y-5625D01*
X77694Y-5533D01*
X77433Y-5459D01*
X77157Y-5402D01*
X76864Y-5362D01*
X76554Y-5339D01*
X76228Y-5334D01*
X78994Y-2568D01*
X78999Y-2894D01*
D02*
G37*
G36*
X-76228Y-5334D02*
X-76554Y-5339D01*
X-76864Y-5362D01*
X-77157Y-5402D01*
X-77433Y-5459D01*
X-77694Y-5533D01*
X-77937Y-5625D01*
X-78165Y-5734D01*
X-78375Y-5860D01*
X-78569Y-6004D01*
X-78747Y-6165D01*
X-79825Y-5087D01*
X-79664Y-4909D01*
X-79520Y-4715D01*
X-79394Y-4505D01*
X-79285Y-4277D01*
X-79193Y-4034D01*
X-79119Y-3773D01*
X-79062Y-3497D01*
X-79022Y-3204D01*
X-78999Y-2894D01*
X-78994Y-2568D01*
X-76228Y-5334D01*
D02*
G37*
G36*
X20133Y-5584D02*
X19853Y-5908D01*
X19605Y-6232D01*
X19390Y-6556D01*
X19209Y-6879D01*
X19060Y-7203D01*
X18945Y-7527D01*
X18862Y-7850D01*
X18813Y-8174D01*
X18796Y-8498D01*
X16764D01*
X16747Y-8174D01*
X16698Y-7850D01*
X16615Y-7527D01*
X16500Y-7203D01*
X16351Y-6879D01*
X16170Y-6556D01*
X15955Y-6232D01*
X15707Y-5908D01*
X15427Y-5584D01*
X15113Y-5261D01*
X20447D01*
X20133Y-5584D01*
D02*
G37*
G36*
X-15475Y-5630D02*
X-16085Y-6342D01*
X-16332Y-6685D01*
X-16542Y-7019D01*
X-16713Y-7344D01*
X-16847Y-7661D01*
X-16942Y-7969D01*
X-16999Y-8268D01*
X-17018Y-8559D01*
X-18542D01*
X-18561Y-8268D01*
X-18618Y-7969D01*
X-18713Y-7661D01*
X-18847Y-7344D01*
X-19018Y-7019D01*
X-19228Y-6685D01*
X-19476Y-6342D01*
X-19761Y-5990D01*
X-20447Y-5261D01*
X-15113D01*
X-15475Y-5630D01*
D02*
G37*
G36*
X-3805Y-5742D02*
X-3583Y-5804D01*
X-3392Y-5875D01*
X-3230Y-5952D01*
X-3092Y-6034D01*
X-3029Y-6080D01*
X-1579Y-7530D01*
Y-74930D01*
X-1579Y-74930D01*
X-1362Y-76020D01*
X-744Y-76944D01*
X1540Y-79229D01*
X1586Y-79292D01*
X1668Y-79430D01*
X1745Y-79592D01*
X1816Y-79783D01*
X1878Y-80005D01*
X1898Y-80101D01*
X1664Y-81280D01*
X2117Y-83559D01*
X3408Y-85492D01*
X5341Y-86783D01*
X7620Y-87236D01*
X9899Y-86783D01*
X11832Y-85492D01*
X13123Y-83559D01*
X13577Y-81280D01*
X13123Y-79001D01*
X11832Y-77068D01*
X9899Y-75777D01*
X7620Y-75324D01*
X6441Y-75558D01*
X6345Y-75539D01*
X6123Y-75476D01*
X5932Y-75405D01*
X5770Y-75328D01*
X5632Y-75246D01*
X5569Y-75200D01*
X4119Y-73750D01*
Y-13920D01*
X5389Y-13535D01*
X5948Y-14372D01*
X7881Y-15663D01*
X10160Y-16116D01*
X12439Y-15663D01*
X13661Y-14847D01*
X14931Y-15525D01*
Y-25400D01*
X14931Y-25400D01*
X15148Y-26490D01*
X15766Y-27414D01*
X25091Y-36740D01*
Y-75530D01*
X25079Y-75608D01*
X25040Y-75763D01*
X24979Y-75933D01*
X24894Y-76118D01*
X24781Y-76319D01*
X24727Y-76400D01*
X23728Y-77068D01*
X22437Y-79001D01*
X22368Y-79348D01*
X21105Y-79768D01*
X20370Y-79157D01*
Y-77042D01*
X20380Y-76989D01*
X20419Y-76862D01*
X20487Y-76700D01*
X20590Y-76504D01*
X20732Y-76278D01*
X20878Y-76076D01*
X21992Y-75332D01*
X23283Y-73399D01*
X23737Y-71120D01*
X23283Y-68841D01*
X21992Y-66908D01*
X20059Y-65617D01*
X17780Y-65163D01*
X15501Y-65617D01*
X13568Y-66908D01*
X12277Y-68841D01*
X11824Y-71120D01*
X12277Y-73399D01*
X13568Y-75332D01*
X14682Y-76076D01*
X14828Y-76278D01*
X14970Y-76504D01*
X15073Y-76700D01*
X15141Y-76862D01*
X15180Y-76988D01*
X15190Y-77042D01*
Y-80459D01*
X15387Y-81451D01*
X15949Y-82291D01*
X23373Y-89715D01*
X24214Y-90277D01*
X25205Y-90474D01*
X33535D01*
X33788Y-91744D01*
X33421Y-91896D01*
X31483Y-93383D01*
X29996Y-95321D01*
X29061Y-97578D01*
X28742Y-100000D01*
X29061Y-102422D01*
X29996Y-104679D01*
X31483Y-106617D01*
X33421Y-108104D01*
X35678Y-109039D01*
X38100Y-109358D01*
X40522Y-109039D01*
X42779Y-108104D01*
X44717Y-106617D01*
X46204Y-104679D01*
X47139Y-102422D01*
X47458Y-100000D01*
X47139Y-97578D01*
X46204Y-95321D01*
X44717Y-93383D01*
X42779Y-91896D01*
X42412Y-91744D01*
X42665Y-90474D01*
X56743D01*
X57734Y-90277D01*
X58574Y-89715D01*
X83435Y-64854D01*
X83730Y-64413D01*
X85000Y-64798D01*
Y-100000D01*
X85000Y-100000D01*
Y-101970D01*
X84231Y-105834D01*
X82724Y-109474D01*
X80535Y-112749D01*
X77749Y-115535D01*
X74474Y-117724D01*
X70834Y-119231D01*
X66970Y-120000D01*
X65000Y-120000D01*
X-65000Y-120000D01*
X-66970D01*
X-70834Y-119231D01*
X-74474Y-117724D01*
X-77749Y-115535D01*
X-80535Y-112749D01*
X-82724Y-109474D01*
X-84231Y-105834D01*
X-85000Y-101970D01*
Y-100000D01*
Y-64798D01*
X-83730Y-64413D01*
X-83435Y-64854D01*
X-59599Y-88690D01*
X-60125Y-89960D01*
X-62230D01*
Y-98730D01*
X-53460D01*
Y-90474D01*
X-45525D01*
X-44534Y-90277D01*
X-43693Y-89715D01*
X-35634Y-81656D01*
X-34256Y-82074D01*
X-33922Y-83758D01*
X-32518Y-85858D01*
X-30418Y-87262D01*
X-29210Y-87502D01*
Y-81280D01*
X-27940D01*
Y-80010D01*
X-21718D01*
X-21958Y-78802D01*
X-23362Y-76702D01*
X-25462Y-75298D01*
X-27146Y-74964D01*
X-27564Y-73586D01*
X-24892Y-70914D01*
X-23664Y-71482D01*
X-23283Y-73399D01*
X-21992Y-75332D01*
X-20059Y-76623D01*
X-17780Y-77077D01*
X-15501Y-76623D01*
X-13568Y-75332D01*
X-12277Y-73399D01*
X-11824Y-71120D01*
X-12277Y-68841D01*
X-13568Y-66908D01*
X-15501Y-65617D01*
X-17418Y-65236D01*
X-17986Y-64008D01*
X-15949Y-61971D01*
X-15387Y-61130D01*
X-15190Y-60139D01*
Y-15259D01*
X-13920Y-14674D01*
X-12439Y-15663D01*
X-10160Y-16116D01*
X-7881Y-15663D01*
X-5948Y-14372D01*
X-4657Y-12439D01*
X-4203Y-10160D01*
X-4657Y-7881D01*
X-5136Y-7164D01*
X-5133Y-7099D01*
X-4493Y-5840D01*
X-3901Y-5722D01*
X-3805Y-5742D01*
D02*
G37*
G36*
X62237Y-13189D02*
X62267Y-13616D01*
X62321Y-14020D01*
X62398Y-14401D01*
X62499Y-14758D01*
X62622Y-15092D01*
X62770Y-15403D01*
X62940Y-15690D01*
X63134Y-15954D01*
X63351Y-16195D01*
X61915Y-17631D01*
X61674Y-17414D01*
X61410Y-17220D01*
X61123Y-17050D01*
X60812Y-16903D01*
X60478Y-16779D01*
X60121Y-16678D01*
X59740Y-16601D01*
X59336Y-16547D01*
X58909Y-16517D01*
X58458Y-16510D01*
X62230Y-12738D01*
X62237Y-13189D01*
D02*
G37*
G36*
X-58458Y-16510D02*
X-58909Y-16517D01*
X-59336Y-16547D01*
X-59740Y-16601D01*
X-60121Y-16678D01*
X-60478Y-16779D01*
X-60812Y-16903D01*
X-61123Y-17050D01*
X-61410Y-17220D01*
X-61674Y-17414D01*
X-61915Y-17631D01*
X-63351Y-16195D01*
X-63134Y-15954D01*
X-62940Y-15690D01*
X-62770Y-15403D01*
X-62622Y-15092D01*
X-62499Y-14758D01*
X-62398Y-14401D01*
X-62321Y-14020D01*
X-62267Y-13616D01*
X-62237Y-13189D01*
X-62230Y-12738D01*
X-58458Y-16510D01*
D02*
G37*
G36*
X-49932Y-14372D02*
X-47999Y-15663D01*
X-46996Y-15863D01*
Y-17157D01*
X-47999Y-17357D01*
X-49932Y-18648D01*
X-51223Y-20581D01*
X-51677Y-22860D01*
X-51246Y-25023D01*
X-51500Y-25335D01*
X-52261Y-25872D01*
X-53601Y-24977D01*
X-55880Y-24523D01*
X-58159Y-24977D01*
X-60092Y-26268D01*
X-61383Y-28201D01*
X-61837Y-30480D01*
X-61459Y-32376D01*
X-62126Y-33256D01*
X-62439Y-33465D01*
X-63661Y-33222D01*
X-63840D01*
X-64015Y-33187D01*
X-65985D01*
X-66160Y-33222D01*
X-66339D01*
X-68271Y-33606D01*
X-68436Y-33675D01*
X-68611Y-33709D01*
X-70430Y-34463D01*
X-70579Y-34562D01*
X-70744Y-34631D01*
X-72382Y-35725D01*
X-72508Y-35852D01*
X-72656Y-35951D01*
X-73675Y-36969D01*
X-74945Y-36443D01*
Y-33254D01*
X-60471Y-18780D01*
X-60408Y-18734D01*
X-60270Y-18652D01*
X-60107Y-18575D01*
X-59917Y-18504D01*
X-59695Y-18441D01*
X-59599Y-18422D01*
X-58420Y-18657D01*
X-56141Y-18203D01*
X-54208Y-16912D01*
X-52917Y-14979D01*
X-52463Y-12700D01*
X-52465Y-12693D01*
X-51223Y-12440D01*
X-49932Y-14372D01*
D02*
G37*
G36*
X45682Y-26670D02*
X45231Y-26677D01*
X44804Y-26707D01*
X44400Y-26761D01*
X44019Y-26838D01*
X43662Y-26939D01*
X43328Y-27062D01*
X43017Y-27210D01*
X42730Y-27380D01*
X42466Y-27574D01*
X42225Y-27791D01*
X40789Y-26355D01*
X41006Y-26114D01*
X41200Y-25850D01*
X41370Y-25563D01*
X41518Y-25252D01*
X41641Y-24918D01*
X41742Y-24561D01*
X41819Y-24180D01*
X41873Y-23776D01*
X41903Y-23349D01*
X41910Y-22898D01*
X45682Y-26670D01*
D02*
G37*
G36*
X-41903Y-23349D02*
X-41873Y-23776D01*
X-41819Y-24180D01*
X-41742Y-24561D01*
X-41641Y-24918D01*
X-41518Y-25252D01*
X-41370Y-25563D01*
X-41200Y-25850D01*
X-41006Y-26114D01*
X-40789Y-26355D01*
X-42225Y-27791D01*
X-42466Y-27574D01*
X-42730Y-27380D01*
X-43017Y-27210D01*
X-43328Y-27062D01*
X-43662Y-26939D01*
X-44019Y-26838D01*
X-44400Y-26761D01*
X-44804Y-26707D01*
X-45231Y-26677D01*
X-45682Y-26670D01*
X-41910Y-22898D01*
X-41903Y-23349D01*
D02*
G37*
G36*
X50100Y-28005D02*
X50354Y-28317D01*
X49924Y-30480D01*
X50377Y-32759D01*
X51668Y-34692D01*
X53601Y-35983D01*
X55197Y-36301D01*
X55549Y-36787D01*
X55606Y-36921D01*
X55725Y-37618D01*
X54631Y-39256D01*
X54562Y-39421D01*
X54463Y-39569D01*
X53709Y-41389D01*
X53675Y-41564D01*
X53606Y-41729D01*
X53222Y-43661D01*
Y-43840D01*
X53187Y-44015D01*
Y-45985D01*
X53222Y-46160D01*
Y-46339D01*
X53606Y-48271D01*
X53675Y-48436D01*
X53709Y-48611D01*
X54463Y-50431D01*
X54562Y-50579D01*
X54631Y-50744D01*
X55725Y-52382D01*
X55851Y-52508D01*
X55951Y-52656D01*
X57344Y-54049D01*
X57492Y-54149D01*
X57618Y-54275D01*
X59256Y-55369D01*
X59421Y-55438D01*
X59570Y-55537D01*
X61389Y-56291D01*
X61564Y-56325D01*
X61729Y-56394D01*
X63661Y-56778D01*
X63840D01*
X64015Y-56813D01*
X65985D01*
X66160Y-56778D01*
X66339D01*
X68271Y-56394D01*
X68436Y-56325D01*
X68611Y-56291D01*
X70430Y-55537D01*
X70579Y-55438D01*
X70744Y-55369D01*
X72382Y-54275D01*
X72508Y-54149D01*
X72656Y-54049D01*
X73675Y-53031D01*
X74945Y-53557D01*
Y-60265D01*
X65281Y-69928D01*
X64066Y-69560D01*
X63923Y-68841D01*
X62632Y-66908D01*
X60699Y-65617D01*
X58420Y-65163D01*
X56141Y-65617D01*
X54208Y-66908D01*
X52917Y-68841D01*
X52463Y-71120D01*
X52917Y-73399D01*
X54208Y-75332D01*
X55977Y-76514D01*
X56197Y-76879D01*
X56439Y-77977D01*
X56080Y-78431D01*
X54010D01*
X53932Y-78419D01*
X53777Y-78380D01*
X53607Y-78319D01*
X53422Y-78234D01*
X53221Y-78122D01*
X53140Y-78067D01*
X52472Y-77068D01*
X50539Y-75777D01*
X48260Y-75324D01*
X45981Y-75777D01*
X44048Y-77068D01*
X42757Y-79001D01*
X42304Y-81280D01*
X42757Y-83559D01*
X43168Y-84174D01*
X42569Y-85294D01*
X33631D01*
X33032Y-84174D01*
X33443Y-83559D01*
X33897Y-81280D01*
X33443Y-79001D01*
X32152Y-77068D01*
X31153Y-76400D01*
X31098Y-76319D01*
X30986Y-76118D01*
X30901Y-75933D01*
X30840Y-75763D01*
X30801Y-75608D01*
X30789Y-75530D01*
Y-70702D01*
X30836Y-70603D01*
X32059Y-70097D01*
X32299Y-70338D01*
X32143Y-71120D01*
X32597Y-73399D01*
X33888Y-75332D01*
X35821Y-76623D01*
X38100Y-77077D01*
X40379Y-76623D01*
X42312Y-75332D01*
X43603Y-73399D01*
X44057Y-71120D01*
X43603Y-68841D01*
X42312Y-66908D01*
X40379Y-65617D01*
X38100Y-65163D01*
X36922Y-65398D01*
X36825Y-65378D01*
X36603Y-65316D01*
X36412Y-65245D01*
X36250Y-65168D01*
X36112Y-65086D01*
X36049Y-65040D01*
X35869Y-64860D01*
Y-53615D01*
X36718Y-53265D01*
X37139Y-53256D01*
X38209Y-54651D01*
X39730Y-55817D01*
X41500Y-56551D01*
X43400Y-56801D01*
X45300Y-56551D01*
X47070Y-55817D01*
X48591Y-54651D01*
X49757Y-53131D01*
X50491Y-51360D01*
X50741Y-49460D01*
Y-39460D01*
X50491Y-37560D01*
X49757Y-35790D01*
X48591Y-34269D01*
X47070Y-33103D01*
X45300Y-32369D01*
X43400Y-32119D01*
X42116Y-32288D01*
X41523Y-31086D01*
X43669Y-28940D01*
X43732Y-28894D01*
X43870Y-28812D01*
X44033Y-28735D01*
X44223Y-28664D01*
X44445Y-28602D01*
X44541Y-28582D01*
X45720Y-28816D01*
X47999Y-28363D01*
X49339Y-27468D01*
X50100Y-28005D01*
D02*
G37*
G36*
X-47999Y-28363D02*
X-45720Y-28816D01*
X-44541Y-28582D01*
X-44445Y-28602D01*
X-44223Y-28664D01*
X-44032Y-28735D01*
X-43870Y-28812D01*
X-43732Y-28894D01*
X-43669Y-28940D01*
X-41584Y-31025D01*
X-42177Y-32228D01*
X-43000Y-32119D01*
X-44900Y-32369D01*
X-46671Y-33103D01*
X-48191Y-34269D01*
X-49358Y-35790D01*
X-50091Y-37560D01*
X-50341Y-39460D01*
Y-49460D01*
X-50091Y-51360D01*
X-49358Y-53131D01*
X-48191Y-54651D01*
X-46671Y-55817D01*
X-44900Y-56551D01*
X-43000Y-56801D01*
X-41100Y-56551D01*
X-39330Y-55817D01*
X-37809Y-54651D01*
X-37139Y-53777D01*
X-35869Y-54208D01*
Y-64860D01*
X-36049Y-65040D01*
X-36112Y-65086D01*
X-36250Y-65168D01*
X-36412Y-65245D01*
X-36603Y-65316D01*
X-36825Y-65378D01*
X-36921Y-65398D01*
X-38100Y-65163D01*
X-40379Y-65617D01*
X-42312Y-66908D01*
X-43603Y-68841D01*
X-44057Y-71120D01*
X-43603Y-73399D01*
X-42312Y-75332D01*
X-40379Y-76623D01*
X-39654Y-76767D01*
X-39286Y-77983D01*
X-41397Y-80094D01*
X-42613Y-79726D01*
X-42757Y-79001D01*
X-44048Y-77068D01*
X-45981Y-75777D01*
X-48260Y-75324D01*
X-50539Y-75777D01*
X-52472Y-77068D01*
X-53140Y-78067D01*
X-53221Y-78122D01*
X-53422Y-78234D01*
X-53607Y-78319D01*
X-53777Y-78380D01*
X-53932Y-78419D01*
X-54010Y-78431D01*
X-56080D01*
X-56439Y-77977D01*
X-56197Y-76879D01*
X-55977Y-76514D01*
X-54208Y-75332D01*
X-52917Y-73399D01*
X-52463Y-71120D01*
X-52917Y-68841D01*
X-54208Y-66908D01*
X-56141Y-65617D01*
X-58420Y-65163D01*
X-60699Y-65617D01*
X-62632Y-66908D01*
X-63923Y-68841D01*
X-64066Y-69560D01*
X-65281Y-69928D01*
X-74945Y-60265D01*
Y-53557D01*
X-73675Y-53031D01*
X-72656Y-54049D01*
X-72508Y-54149D01*
X-72382Y-54275D01*
X-70744Y-55369D01*
X-70579Y-55438D01*
X-70430Y-55537D01*
X-68611Y-56291D01*
X-68436Y-56325D01*
X-68271Y-56394D01*
X-66339Y-56778D01*
X-66160D01*
X-65985Y-56813D01*
X-64015D01*
X-63840Y-56778D01*
X-63661D01*
X-61729Y-56394D01*
X-61564Y-56325D01*
X-61389Y-56291D01*
X-59570Y-55537D01*
X-59421Y-55438D01*
X-59256Y-55369D01*
X-57618Y-54275D01*
X-57492Y-54149D01*
X-57344Y-54049D01*
X-55951Y-52656D01*
X-55851Y-52508D01*
X-55725Y-52382D01*
X-54631Y-50744D01*
X-54563Y-50579D01*
X-54463Y-50430D01*
X-53710Y-48611D01*
X-53675Y-48436D01*
X-53606Y-48271D01*
X-53222Y-46339D01*
Y-46160D01*
X-53187Y-45985D01*
Y-44015D01*
X-53222Y-43840D01*
Y-43661D01*
X-53606Y-41729D01*
X-53675Y-41564D01*
X-53710Y-41389D01*
X-54463Y-39569D01*
X-54563Y-39421D01*
X-54631Y-39256D01*
X-55725Y-37618D01*
X-55606Y-36921D01*
X-55549Y-36787D01*
X-55197Y-36301D01*
X-53601Y-35983D01*
X-51668Y-34692D01*
X-50377Y-32759D01*
X-49924Y-30480D01*
X-50354Y-28317D01*
X-50100Y-28005D01*
X-49339Y-27468D01*
X-47999Y-28363D01*
D02*
G37*
G36*
X37933Y21110D02*
X37243Y20210D01*
X36509Y18440D01*
X36259Y16540D01*
Y1540D01*
X36509Y-360D01*
X37243Y-2131D01*
X38409Y-3651D01*
X39930Y-4817D01*
X40645Y-5114D01*
X41038Y-6651D01*
X40217Y-7881D01*
X39764Y-10160D01*
X40217Y-12439D01*
X41508Y-14372D01*
X43441Y-15663D01*
X44444Y-15863D01*
Y-17157D01*
X43441Y-17357D01*
X41508Y-18648D01*
X40217Y-20581D01*
X39764Y-22860D01*
X39998Y-24039D01*
X39978Y-24135D01*
X39916Y-24357D01*
X39845Y-24548D01*
X39768Y-24710D01*
X39686Y-24848D01*
X39640Y-24911D01*
X31291Y-33260D01*
X30679Y-33391D01*
X30281D01*
X29669Y-33260D01*
X20629Y-24220D01*
Y-8290D01*
X20641Y-8212D01*
X20680Y-8057D01*
X20741Y-7887D01*
X20826Y-7702D01*
X20938Y-7501D01*
X20993Y-7419D01*
X21992Y-6752D01*
X23283Y-4819D01*
X23737Y-2540D01*
X23283Y-261D01*
X21992Y1672D01*
X20059Y2963D01*
X17780Y3417D01*
X15501Y2963D01*
X13568Y1672D01*
X12277Y-260D01*
X11035Y-7D01*
X11036Y0D01*
X10583Y2279D01*
X9292Y4212D01*
X7359Y5503D01*
X5080Y5957D01*
X2801Y5503D01*
X868Y4212D01*
X635Y3863D01*
X-635D01*
X-868Y4212D01*
X-2801Y5503D01*
X-5080Y5957D01*
X-7359Y5503D01*
X-9292Y4212D01*
X-10583Y2279D01*
X-11036Y0D01*
X-11035Y-7D01*
X-12277Y-260D01*
X-13568Y1672D01*
X-15501Y2963D01*
X-17780Y3417D01*
X-20059Y2963D01*
X-21992Y1672D01*
X-23283Y-261D01*
X-23737Y-2540D01*
X-23283Y-4819D01*
X-21992Y-6752D01*
X-20878Y-7496D01*
X-20732Y-7698D01*
X-20590Y-7924D01*
X-20487Y-8120D01*
X-20419Y-8282D01*
X-20380Y-8408D01*
X-20370Y-8462D01*
Y-59067D01*
X-29722Y-68418D01*
X-30708Y-67609D01*
X-30388Y-67130D01*
X-30171Y-66040D01*
X-30171Y-66040D01*
Y-35560D01*
X-30171Y-35560D01*
X-30388Y-34470D01*
X-31006Y-33546D01*
X-31006Y-33546D01*
X-39640Y-24911D01*
X-39686Y-24848D01*
X-39768Y-24710D01*
X-39845Y-24548D01*
X-39916Y-24357D01*
X-39978Y-24135D01*
X-39998Y-24039D01*
X-39764Y-22860D01*
X-40217Y-20581D01*
X-41508Y-18648D01*
X-43441Y-17357D01*
X-44444Y-17157D01*
Y-15863D01*
X-43441Y-15663D01*
X-41508Y-14372D01*
X-40217Y-12439D01*
X-39764Y-10160D01*
X-40217Y-7881D01*
X-40916Y-6834D01*
X-40913Y-6547D01*
X-40388Y-5339D01*
X-39130Y-4817D01*
X-37609Y-3651D01*
X-36443Y-2131D01*
X-35709Y-360D01*
X-35459Y1540D01*
Y16540D01*
X-35709Y18440D01*
X-36443Y20210D01*
X-37133Y21110D01*
X-36507Y22380D01*
X37307Y22380D01*
X37933Y21110D01*
D02*
G37*
G36*
X52465Y-12693D02*
X52463Y-12700D01*
X52917Y-14979D01*
X54208Y-16912D01*
X56141Y-18203D01*
X58420Y-18657D01*
X59599Y-18422D01*
X59695Y-18441D01*
X59917Y-18504D01*
X60108Y-18575D01*
X60270Y-18652D01*
X60408Y-18734D01*
X60471Y-18780D01*
X74945Y-33254D01*
Y-36443D01*
X73675Y-36969D01*
X72656Y-35951D01*
X72508Y-35851D01*
X72382Y-35725D01*
X70744Y-34631D01*
X70579Y-34562D01*
X70430Y-34463D01*
X68611Y-33709D01*
X68436Y-33675D01*
X68271Y-33606D01*
X66339Y-33222D01*
X66160D01*
X65985Y-33187D01*
X64015D01*
X63840Y-33222D01*
X63661D01*
X62439Y-33465D01*
X62126Y-33256D01*
X61459Y-32376D01*
X61837Y-30480D01*
X61383Y-28201D01*
X60092Y-26268D01*
X58159Y-24977D01*
X55880Y-24523D01*
X53601Y-24977D01*
X52261Y-25872D01*
X51500Y-25335D01*
X51246Y-25023D01*
X51677Y-22860D01*
X51223Y-20581D01*
X49932Y-18648D01*
X47999Y-17357D01*
X46996Y-17157D01*
Y-15863D01*
X47999Y-15663D01*
X49932Y-14372D01*
X51223Y-12440D01*
X52465Y-12693D01*
D02*
G37*
G36*
X34846Y-66406D02*
X35110Y-66600D01*
X35397Y-66770D01*
X35708Y-66918D01*
X36042Y-67041D01*
X36399Y-67142D01*
X36780Y-67219D01*
X37184Y-67273D01*
X37611Y-67303D01*
X38062Y-67310D01*
X34290Y-71082D01*
X34283Y-70631D01*
X34253Y-70204D01*
X34199Y-69800D01*
X34122Y-69419D01*
X34021Y-69062D01*
X33898Y-68728D01*
X33750Y-68417D01*
X33580Y-68130D01*
X33386Y-67866D01*
X33169Y-67625D01*
X34606Y-66189D01*
X34846Y-66406D01*
D02*
G37*
G36*
X-33169Y-67625D02*
X-33386Y-67866D01*
X-33580Y-68130D01*
X-33750Y-68417D01*
X-33898Y-68728D01*
X-34021Y-69062D01*
X-34122Y-69419D01*
X-34199Y-69800D01*
X-34253Y-70204D01*
X-34283Y-70631D01*
X-34290Y-71082D01*
X-38062Y-67310D01*
X-37611Y-67303D01*
X-37184Y-67273D01*
X-36780Y-67219D01*
X-36399Y-67142D01*
X-36042Y-67041D01*
X-35708Y-66918D01*
X-35397Y-66770D01*
X-35110Y-66600D01*
X-34846Y-66406D01*
X-34605Y-66189D01*
X-33169Y-67625D01*
D02*
G37*
G36*
X20085Y-74210D02*
X19476Y-74922D01*
X19228Y-75265D01*
X19018Y-75599D01*
X18847Y-75925D01*
X18713Y-76241D01*
X18618Y-76549D01*
X18561Y-76849D01*
X18542Y-77139D01*
X17018D01*
X16999Y-76849D01*
X16942Y-76549D01*
X16847Y-76241D01*
X16713Y-75925D01*
X16542Y-75599D01*
X16332Y-75265D01*
X16085Y-74922D01*
X15799Y-74570D01*
X15113Y-73841D01*
X20447D01*
X20085Y-74210D01*
D02*
G37*
G36*
X28972Y-75646D02*
X29022Y-75970D01*
X29105Y-76293D01*
X29220Y-76617D01*
X29369Y-76941D01*
X29550Y-77264D01*
X29765Y-77588D01*
X30013Y-77912D01*
X30293Y-78236D01*
X30607Y-78559D01*
X25273D01*
X25587Y-78236D01*
X25867Y-77912D01*
X26115Y-77588D01*
X26330Y-77264D01*
X26511Y-76941D01*
X26660Y-76617D01*
X26775Y-76293D01*
X26858Y-75970D01*
X26907Y-75646D01*
X26924Y-75322D01*
X28956D01*
X28972Y-75646D01*
D02*
G37*
G36*
X4366Y-76566D02*
X4630Y-76760D01*
X4917Y-76930D01*
X5228Y-77077D01*
X5562Y-77201D01*
X5919Y-77302D01*
X6300Y-77379D01*
X6704Y-77433D01*
X7131Y-77463D01*
X7582Y-77470D01*
X3810Y-81242D01*
X3803Y-80791D01*
X3773Y-80364D01*
X3719Y-79960D01*
X3642Y-79579D01*
X3541Y-79222D01*
X3417Y-78888D01*
X3270Y-78577D01*
X3100Y-78290D01*
X2906Y-78026D01*
X2689Y-77785D01*
X4125Y-76349D01*
X4366Y-76566D01*
D02*
G37*
G36*
X51304Y-78927D02*
X51628Y-79207D01*
X51952Y-79455D01*
X52276Y-79670D01*
X52599Y-79851D01*
X52923Y-80000D01*
X53247Y-80115D01*
X53570Y-80198D01*
X53894Y-80247D01*
X54218Y-80264D01*
Y-82296D01*
X53894Y-82312D01*
X53570Y-82362D01*
X53247Y-82445D01*
X52923Y-82560D01*
X52599Y-82709D01*
X52276Y-82890D01*
X51952Y-83105D01*
X51628Y-83353D01*
X51304Y-83633D01*
X50981Y-83947D01*
Y-78613D01*
X51304Y-78927D01*
D02*
G37*
G36*
X-50981Y-83947D02*
X-51304Y-83633D01*
X-51628Y-83353D01*
X-51952Y-83105D01*
X-52276Y-82890D01*
X-52599Y-82709D01*
X-52923Y-82560D01*
X-53247Y-82445D01*
X-53570Y-82362D01*
X-53894Y-82312D01*
X-54218Y-82296D01*
Y-80264D01*
X-53894Y-80247D01*
X-53570Y-80198D01*
X-53247Y-80115D01*
X-52923Y-80000D01*
X-52599Y-79851D01*
X-52276Y-79670D01*
X-51952Y-79455D01*
X-51628Y-79207D01*
X-51304Y-78927D01*
X-50981Y-78613D01*
Y-83947D01*
D02*
G37*
%LPC*%
G36*
X65000Y17603D02*
X63032Y17344D01*
X61199Y16584D01*
X59624Y15376D01*
X58416Y13801D01*
X57656Y11968D01*
X57397Y10000D01*
X57656Y8032D01*
X58416Y6198D01*
X59624Y4624D01*
X61199Y3416D01*
X63032Y2656D01*
X65000Y2397D01*
X66968Y2656D01*
X68801Y3416D01*
X70376Y4624D01*
X71584Y6198D01*
X72344Y8032D01*
X72603Y10000D01*
X72344Y11968D01*
X71584Y13801D01*
X70376Y15376D01*
X68801Y16584D01*
X66968Y17344D01*
X65000Y17603D01*
D02*
G37*
G36*
X-65000D02*
X-66968Y17344D01*
X-68801Y16584D01*
X-70376Y15376D01*
X-71584Y13801D01*
X-72344Y11968D01*
X-72603Y10000D01*
X-72344Y8032D01*
X-71584Y6198D01*
X-70376Y4624D01*
X-68801Y3416D01*
X-66968Y2656D01*
X-65000Y2397D01*
X-63032Y2656D01*
X-61199Y3416D01*
X-59624Y4624D01*
X-58416Y6198D01*
X-57656Y8032D01*
X-57397Y10000D01*
X-57656Y11968D01*
X-58416Y13801D01*
X-59624Y15376D01*
X-61199Y16584D01*
X-63032Y17344D01*
X-65000Y17603D01*
D02*
G37*
G36*
X-7620Y-75324D02*
X-9899Y-75777D01*
X-11832Y-77068D01*
X-13123Y-79001D01*
X-13577Y-81280D01*
X-13123Y-83559D01*
X-11832Y-85492D01*
X-9899Y-86783D01*
X-7620Y-87236D01*
X-5341Y-86783D01*
X-3408Y-85492D01*
X-2117Y-83559D01*
X-1664Y-81280D01*
X-2117Y-79001D01*
X-3408Y-77068D01*
X-5341Y-75777D01*
X-7620Y-75324D01*
D02*
G37*
G36*
X-21718Y-82550D02*
X-26670D01*
Y-87502D01*
X-25462Y-87262D01*
X-23362Y-85858D01*
X-21958Y-83758D01*
X-21718Y-82550D01*
D02*
G37*
G36*
X-64770Y-89960D02*
X-73540D01*
Y-98730D01*
X-64770D01*
Y-89960D01*
D02*
G37*
G36*
X63500Y-90642D02*
X61078Y-90961D01*
X58821Y-91896D01*
X56883Y-93383D01*
X55396Y-95321D01*
X54461Y-97578D01*
X54142Y-100000D01*
X54461Y-102422D01*
X55396Y-104679D01*
X56883Y-106617D01*
X58821Y-108104D01*
X61078Y-109039D01*
X63500Y-109358D01*
X65922Y-109039D01*
X68179Y-108104D01*
X70117Y-106617D01*
X71604Y-104679D01*
X72539Y-102422D01*
X72858Y-100000D01*
X72539Y-97578D01*
X71604Y-95321D01*
X70117Y-93383D01*
X68179Y-91896D01*
X65922Y-90961D01*
X63500Y-90642D01*
D02*
G37*
G36*
X12700D02*
X10278Y-90961D01*
X8021Y-91896D01*
X6083Y-93383D01*
X4596Y-95321D01*
X3661Y-97578D01*
X3342Y-100000D01*
X3661Y-102422D01*
X4596Y-104679D01*
X6083Y-106617D01*
X8021Y-108104D01*
X10278Y-109039D01*
X12700Y-109358D01*
X15122Y-109039D01*
X17379Y-108104D01*
X19317Y-106617D01*
X20804Y-104679D01*
X21739Y-102422D01*
X22058Y-100000D01*
X21739Y-97578D01*
X20804Y-95321D01*
X19317Y-93383D01*
X17379Y-91896D01*
X15122Y-90961D01*
X12700Y-90642D01*
D02*
G37*
G36*
X-12700D02*
X-15122Y-90961D01*
X-17379Y-91896D01*
X-19317Y-93383D01*
X-20804Y-95321D01*
X-21739Y-97578D01*
X-22058Y-100000D01*
X-21739Y-102422D01*
X-20804Y-104679D01*
X-19317Y-106617D01*
X-17379Y-108104D01*
X-15122Y-109039D01*
X-12700Y-109358D01*
X-10278Y-109039D01*
X-8021Y-108104D01*
X-6083Y-106617D01*
X-4596Y-104679D01*
X-3661Y-102422D01*
X-3342Y-100000D01*
X-3661Y-97578D01*
X-4596Y-95321D01*
X-6083Y-93383D01*
X-8021Y-91896D01*
X-10278Y-90961D01*
X-12700Y-90642D01*
D02*
G37*
G36*
X-38100D02*
X-40522Y-90961D01*
X-42779Y-91896D01*
X-44717Y-93383D01*
X-46204Y-95321D01*
X-47139Y-97578D01*
X-47458Y-100000D01*
X-47139Y-102422D01*
X-46204Y-104679D01*
X-44717Y-106617D01*
X-42779Y-108104D01*
X-40522Y-109039D01*
X-38100Y-109358D01*
X-35678Y-109039D01*
X-33421Y-108104D01*
X-31483Y-106617D01*
X-29996Y-104679D01*
X-29061Y-102422D01*
X-28742Y-100000D01*
X-29061Y-97578D01*
X-29996Y-95321D01*
X-31483Y-93383D01*
X-33421Y-91896D01*
X-35678Y-90961D01*
X-38100Y-90642D01*
D02*
G37*
G36*
X-53460Y-101270D02*
X-62230D01*
Y-110040D01*
X-53460D01*
Y-101270D01*
D02*
G37*
G36*
X-64770D02*
X-73540D01*
Y-110040D01*
X-64770D01*
Y-101270D01*
D02*
G37*
G36*
X31750Y-1398D02*
Y-6350D01*
X36702D01*
X36462Y-5142D01*
X35058Y-3042D01*
X32958Y-1638D01*
X31750Y-1398D01*
D02*
G37*
G36*
X29210D02*
X28002Y-1638D01*
X25902Y-3042D01*
X24498Y-5142D01*
X24258Y-6350D01*
X29210D01*
Y-1398D01*
D02*
G37*
G36*
X-29210D02*
Y-6350D01*
X-24258D01*
X-24498Y-5142D01*
X-25902Y-3042D01*
X-28002Y-1638D01*
X-29210Y-1398D01*
D02*
G37*
G36*
X-31750D02*
X-32958Y-1638D01*
X-35058Y-3042D01*
X-36462Y-5142D01*
X-36702Y-6350D01*
X-31750D01*
Y-1398D01*
D02*
G37*
G36*
X36702Y-8890D02*
X24258D01*
X24498Y-10098D01*
X25902Y-12198D01*
X27373Y-13181D01*
X27105Y-14530D01*
X25661Y-14817D01*
X23728Y-16108D01*
X22437Y-18041D01*
X21983Y-20320D01*
X22437Y-22599D01*
X23728Y-24532D01*
X25661Y-25823D01*
X27940Y-26277D01*
X30219Y-25823D01*
X32152Y-24532D01*
X33443Y-22599D01*
X33897Y-20320D01*
X33443Y-18041D01*
X32152Y-16108D01*
X30939Y-15298D01*
X31207Y-13950D01*
X32958Y-13602D01*
X35058Y-12198D01*
X36462Y-10098D01*
X36702Y-8890D01*
D02*
G37*
G36*
X-24258D02*
X-36702D01*
X-36462Y-10098D01*
X-35058Y-12198D01*
X-32958Y-13602D01*
X-31207Y-13950D01*
X-30939Y-15298D01*
X-32152Y-16108D01*
X-33443Y-18041D01*
X-33897Y-20320D01*
X-33443Y-22599D01*
X-32152Y-24532D01*
X-30219Y-25823D01*
X-27940Y-26277D01*
X-25661Y-25823D01*
X-23728Y-24532D01*
X-22437Y-22599D01*
X-21983Y-20320D01*
X-22437Y-18041D01*
X-23728Y-16108D01*
X-25661Y-14817D01*
X-27105Y-14530D01*
X-27373Y-13181D01*
X-25902Y-12198D01*
X-24498Y-10098D01*
X-24258Y-8890D01*
D02*
G37*
%LPD*%
D13*
X17780Y-25400D02*
X27940Y-35560D01*
Y-81280D02*
Y-35560D01*
X17780Y-25400D02*
Y-2540D01*
X33020Y-66040D02*
X38100Y-71120D01*
X33020Y-35560D02*
X45720Y-22860D01*
X33020Y-66040D02*
Y-35560D01*
X-38100Y-71120D02*
X-33020Y-66040D01*
Y-35560D01*
X-45720Y-22860D02*
X-33020Y-35560D01*
X38100Y-71120D02*
Y-71120D01*
X77794Y-61445D02*
Y-32074D01*
X57959Y-81280D02*
X77794Y-61445D01*
X-5080Y0D02*
X1270Y-6350D01*
Y-74930D02*
X7620Y-81280D01*
X-57959D02*
X-48260D01*
X-77794Y-61445D02*
Y-32074D01*
X48260Y-81280D02*
X57959D01*
X58420Y-12700D02*
X77794Y-32074D01*
X-77794Y-61445D02*
X-57959Y-81280D01*
X-77794Y-32074D02*
X-58420Y-12700D01*
X1270Y-74930D02*
Y-6350D01*
D14*
X65000Y10000D02*
D03*
X-65000D02*
D03*
D15*
X-63500Y-100000D02*
D03*
D16*
X-38100D02*
D03*
X-12700D02*
D03*
X12700D02*
D03*
X38100D02*
D03*
X63500D02*
D03*
D17*
X43600Y9040D02*
D03*
X-42800D02*
D03*
D18*
X43400Y-44460D02*
D03*
X-43000D02*
D03*
D19*
X58420Y-71120D02*
D03*
X48260Y-81280D02*
D03*
X38100Y-71120D02*
D03*
X27940Y-81280D02*
D03*
X17780Y-71120D02*
D03*
X7620Y-81280D02*
D03*
X-7620D02*
D03*
X-17780Y-71120D02*
D03*
X-27940Y-81280D02*
D03*
X-38100Y-71120D02*
D03*
X-48260Y-81280D02*
D03*
X-58420Y-71120D02*
D03*
X10160Y-10160D02*
D03*
X17780Y-2540D02*
D03*
X-17780D02*
D03*
X-5080Y0D02*
D03*
X5080D02*
D03*
X-10160Y-10160D02*
D03*
X45720Y-22860D02*
D03*
X-27940Y-20320D02*
D03*
X27940D02*
D03*
X-45720Y-10160D02*
D03*
X45720D02*
D03*
X30480Y-7620D02*
D03*
X-55880Y-30480D02*
D03*
X-45720Y-22860D02*
D03*
X55880Y-30480D02*
D03*
X-30480Y-7620D02*
D03*
X-58420Y-12700D02*
D03*
X58420D02*
D03*
D20*
X76200Y-2540D02*
D03*
X-76200D02*
D03*
D21*
X-17780Y-60139D02*
Y-2540D01*
X-81604Y-63023D02*
Y-7944D01*
X17780Y-80459D02*
X25205Y-87884D01*
X56743D02*
X81604Y-63023D01*
X17780Y-80459D02*
Y-71120D01*
X81604Y-63023D02*
Y-7944D01*
X25205Y-87884D02*
X56743D01*
X76200Y-2540D02*
X81604Y-7944D01*
X-81604Y-63023D02*
X-56743Y-87884D01*
X-45525D01*
X-17780Y-60139D01*
X-81604Y-7944D02*
X-76200Y-2540D01*
%TF.MD5,9690ad0f87ba8fa6c172fb05633bc7ce*%
M02*
