%TF.GenerationSoftware,Altium Limited,Altium Designer,21.3.2 (30)*%
G04 Layer_Color=0*
%FSLAX44Y44*%
%MOMM*%
%TF.SameCoordinates,675AFF39-0D07-4396-8A84-043E8CC343DD*%
%TF.FilePolarity,Positive*%
%TF.FileFunction,NonPlated,1,4,NPTH,Drill*%
%TF.Part,Single*%
G01*
G75*
%TA.AperFunction,OtherDrill,Pad Free-6 (6.5mm,1mm)*%
%ADD34C,1.1520*%
%TA.AperFunction,OtherDrill,Pad Free-5 (-6.5mm,1mm)*%
%ADD35C,1.1520*%
%TA.AperFunction,ComponentDrill*%
%ADD36O,0.6000X2.1000*%
%ADD37O,0.6000X1.6000*%
G36*
X55000Y-45000D02*
Y-45985D01*
X55384Y-47917D01*
X56138Y-49737D01*
X57232Y-51375D01*
X58625Y-52768D01*
X60263Y-53862D01*
X62083Y-54616D01*
X64015Y-55000D01*
X65000D01*
X65985D01*
X67917Y-54616D01*
X69737Y-53862D01*
X71375Y-52768D01*
X72768Y-51375D01*
X73862Y-49737D01*
X74616Y-47917D01*
X75000Y-45985D01*
Y-45000D01*
Y-44015D01*
X74616Y-42083D01*
X73862Y-40263D01*
X72768Y-38625D01*
X71375Y-37232D01*
X69737Y-36138D01*
X67917Y-35384D01*
X65985Y-35000D01*
X65000D01*
X64015D01*
X62083Y-35384D01*
X60263Y-36138D01*
X58625Y-37232D01*
X57232Y-38625D01*
X56138Y-40263D01*
X55384Y-42083D01*
X55000Y-44015D01*
Y-45000D01*
D01*
D02*
G37*
G36*
X-75000D02*
Y-45985D01*
X-74616Y-47917D01*
X-73862Y-49737D01*
X-72768Y-51375D01*
X-71375Y-52768D01*
X-69737Y-53862D01*
X-67917Y-54616D01*
X-65985Y-55000D01*
X-65000D01*
X-64015D01*
X-62083Y-54616D01*
X-60263Y-53862D01*
X-58625Y-52768D01*
X-57232Y-51375D01*
X-56138Y-49737D01*
X-55384Y-47917D01*
X-55000Y-45985D01*
Y-45000D01*
Y-44015D01*
X-55384Y-42083D01*
X-56138Y-40263D01*
X-57232Y-38625D01*
X-58625Y-37232D01*
X-60263Y-36138D01*
X-62083Y-35384D01*
X-64015Y-35000D01*
X-65000D01*
X-65985D01*
X-67917Y-35384D01*
X-69737Y-36138D01*
X-71375Y-37232D01*
X-72768Y-38625D01*
X-73862Y-40263D01*
X-74616Y-42083D01*
X-75000Y-44015D01*
Y-45000D01*
D01*
D02*
G37*
D34*
X65000Y10000D02*
D03*
D35*
X-65000D02*
D03*
D36*
X43600Y9040D02*
D03*
X-42800D02*
D03*
D37*
X43400Y-44460D02*
D03*
X-43000D02*
D03*
%TF.MD5,93e3d4e7d1541020b0e32d2c28211b4f*%
M02*
